<svg width="1011" height="4645" viewBox="0 0 1011 4645" fill="none" xmlns="http://www.w3.org/2000/svg">
    <path fill-rule="evenodd" clip-rule="evenodd" d="M608.398 4168.42C658.853 4187.38 678.26 4238.78 720.621 4269.55C765.51 4302.16 849.975 4303.47 862.28 4352.85C874.63 4402.41 795.5 4430.03 771.946 4475.54C749.169 4519.54 776.022 4587.92 728.127 4612C680.24 4636.08 623.959 4581.72 568.071 4578.04C508.466 4574.11 438.104 4626.47 394.412 4590.01C350.163 4553.08 416.212 4486.61 397.864 4436C376.52 4377.11 279.354 4345.24 283.555 4284.18C287.676 4224.28 353.947 4178.05 417.161 4155.53C477.127 4134.16 547.731 4145.62 608.398 4168.42Z" fill="#EFF7FF"/>
    <path fill-rule="evenodd" clip-rule="evenodd" d="M492.472 3128.34C445.157 3130.25 411.878 3095.28 367.076 3084.86C319.598 3073.81 250.796 3101.63 223.954 3065.88C197.015 3029.99 251.611 2980.58 255.117 2935.7C258.508 2892.31 213.396 2846.14 243.925 2810.28C274.449 2774.43 338.58 2799.18 385.069 2783.05C434.65 2765.85 473.691 2699.42 521.516 2713.99C569.951 2728.75 539.222 2805.12 571.375 2839.81C608.781 2880.17 698.314 2872.75 715.788 2923.6C732.93 2973.48 695.102 3033.55 651.645 3073.39C610.421 3111.19 549.362 3126.05 492.472 3128.34Z" fill="#EFF7FF"/>
    <path fill-rule="evenodd" clip-rule="evenodd" d="M347.786 1053.85C388.091 1046.94 409.901 1011.41 445.864 994.541C483.975 976.663 547.095 987.769 563.326 952.733C579.615 917.57 524.606 885.673 513.563 848.402C502.884 812.361 532.672 765.246 500.429 740.456C468.191 715.669 418.483 748.123 376.314 742.875C331.342 737.278 286.403 688.2 248.635 709.119C210.385 730.305 250.092 789.277 229.183 824.367C204.859 865.19 127.903 875.047 122.302 921.141C116.807 966.357 159.574 1010.28 203.453 1036.1C245.078 1060.6 299.324 1062.16 347.786 1053.85Z" fill="#EFF7FF"/>
    <path fill-rule="evenodd" clip-rule="evenodd" d="M867.55 344.355C845.657 379.475 804.03 386.322 774.466 413.564C743.137 442.433 729.398 505.822 690.363 507.627C651.186 509.439 642.342 445.697 611.645 421.093C581.961 397.302 526.423 407.189 515.529 367.496C504.636 327.809 554.058 293.65 565.272 252.132C577.23 207.854 548.437 146.976 582.484 119.591C616.966 91.8557 657.031 151.617 697.907 145.45C745.46 138.274 784.132 69.9409 829.463 82.3247C873.93 94.4725 898.725 151.345 906.137 202.335C913.168 250.706 893.873 302.126 867.55 344.355Z" fill="#EFF7FF"/>
</svg>
