<svg width="2618" height="6117" viewBox="0 0 2618 6117" fill="none" xmlns="http://www.w3.org/2000/svg">
    <path fill-rule="evenodd" clip-rule="evenodd" d="M370.762 3802.81C412.099 3733.59 371.131 3628.19 439.942 3579.57C509.372 3530.52 615.205 3566.26 706.877 3565.34C812.914 3564.29 940.763 3504.57 1017.96 3573.81C1097.34 3645.01 1005.93 3761.6 1031.98 3856.93C1055.94 3944.63 1179.47 4011.98 1161.26 4098.23C1143.1 4184.22 1039.29 4233.96 946.473 4261.94C864.118 4286.76 775.068 4246.41 686.072 4241.45C592.657 4236.25 499.585 4267.97 412.803 4232.22C310.522 4190.09 180.821 4126.8 171.286 4029.4C161.344 3927.86 318.699 3889.98 370.762 3802.81Z" fill="#EFF7FF"/>
    <path fill-rule="evenodd" clip-rule="evenodd" d="M626.607 2625.44C588.919 2549.24 481.678 2526.39 474.287 2437.19C466.829 2347.19 547.29 2272.47 590.503 2189.73C640.487 2094.02 652.185 1945.59 746.756 1915.49C843.993 1884.55 897.028 2032.46 988.744 2062.99C1073.11 2091.07 1188.33 2018.36 1251.27 2083.45C1314.02 2148.34 1305.56 2269.58 1284.29 2368.65C1265.41 2456.54 1189.16 2513.6 1142.35 2590.62C1093.22 2671.47 1074.94 2772.88 1003.61 2830.5C919.54 2898.42 804.732 2978.97 719.222 2932.46C630.071 2883.97 674.072 2721.42 626.607 2625.44Z" fill="#EFF7FF"/>
    <path fill-rule="evenodd" clip-rule="evenodd" d="M2130.95 3162.64C2032.91 3232.19 1909.03 3290.64 1800.74 3267.42C1696.92 3245.16 1688.46 3106.24 1603.99 3049.66C1519.47 2993.04 1348.52 3040.46 1317.73 2943.86C1287.31 2848.45 1418.95 2756.14 1480.78 2663.16C1527.14 2593.44 1576.26 2531.78 1633.42 2469.12C1712.3 2382.63 1765.79 2229.98 1877.94 2227.71C1991.7 2225.4 2002.67 2384.55 2074.22 2460.18C2126.54 2515.47 2199.48 2545.86 2239.86 2610.23C2292.47 2694.1 2360.96 2780.45 2340.43 2884.56C2318.69 2994.86 2229.37 3092.82 2130.95 3162.64Z" fill="#EFF7FF"/>
    <path fill-rule="evenodd" clip-rule="evenodd" d="M2220.35 1509.73C2291.07 1576.39 2296.66 1695.96 2257.15 1791.38C2220.2 1880.6 2111.87 1925.15 2025.31 1980.78C1963.87 2020.26 1894.36 2033.23 1829.16 2066.42C1736.65 2113.5 1658.45 2240 1564.49 2215.31C1472.16 2191.06 1515.99 2049.7 1472.2 1972.64C1432.51 1902.8 1317.46 1872.36 1322.57 1789.61C1327.66 1707.18 1436.29 1658.74 1495.76 1591.13C1556.9 1521.62 1584.96 1413.89 1675.56 1388.33C1766.18 1362.76 1831.25 1452.55 1918.21 1471.93C2018.43 1494.26 2150.34 1443.74 2220.35 1509.73Z" fill="#EFF7FF"/>
    <path fill-rule="evenodd" clip-rule="evenodd" d="M1807.41 5557.6C1857.57 5645.98 1824.88 5767.71 1754.33 5851.49C1688.36 5929.84 1564.52 5941.66 1459.14 5971.22C1384.36 5992.19 1309.91 5984.11 1233.32 5997.62C1124.67 6016.79 1005.03 6120.03 917.922 6066.71C832.325 6014.33 921.976 5885.74 902.395 5795.09C884.649 5712.93 778.053 5647.44 809.75 5565.93C841.328 5484.73 966.712 5469.09 1048.54 5419.28C1132.65 5368.08 1195.57 5268.46 1295.38 5270.3C1395.22 5272.15 1432.24 5382.04 1513.98 5427.9C1608.17 5480.75 1757.77 5470.1 1807.41 5557.6Z" fill="#EFF7FF"/>
    <path fill-rule="evenodd" clip-rule="evenodd" d="M1436.92 4733.35C1387.25 4659.45 1407.61 4550.85 1463.54 4472.88C1515.84 4399.97 1623.08 4381.33 1713.03 4348.43C1776.87 4325.08 1842.36 4327.15 1908.26 4310.2C2001.77 4286.16 2099.22 4187.89 2178.79 4228.66C2256.98 4268.71 2187.38 4387.13 2210.54 4465.06C2231.53 4535.69 2328.91 4585.8 2306.72 4659.17C2284.62 4732.27 2176.28 4754.35 2108.24 4803.38C2038.29 4853.78 1990.08 4945.08 1902.87 4950.16C1815.65 4955.24 1775.99 4861.66 1701.61 4827.05C1615.89 4787.16 1486.1 4806.51 1436.92 4733.35Z" fill="#EFF7FF"/>
    <path fill-rule="evenodd" clip-rule="evenodd" d="M2149.02 572.739C2230.9 619.473 2250.16 713.625 2314.78 778.517C2383.26 847.283 2528.77 872.961 2536.32 961.658C2543.9 1050.68 2399.59 1076.44 2346.29 1148.49C2294.75 1218.16 2322.16 1343.71 2232.77 1372.01C2143.39 1400.31 2061.27 1290.82 1965.77 1268.96C1863.93 1245.65 1727.89 1316.57 1662.55 1241.48C1596.37 1165.44 1728.87 1068.96 1711.22 976.46C1690.69 868.845 1531.73 786.848 1555.92 682.567C1579.64 580.273 1706.91 518.811 1822.33 497.439C1931.82 477.164 2050.57 516.546 2149.02 572.739Z" fill="#EFF7FF"/>
    <path fill-rule="evenodd" clip-rule="evenodd" d="M586.657 813.414C692.949 801.788 773.336 875.397 875.879 891.933C984.545 909.456 1135.23 836.123 1201.24 912.519C1267.48 989.194 1152.15 1108.95 1151.21 1210.59C1150.29 1308.88 1259.07 1405.89 1195.85 1491.4C1132.65 1576.91 984.34 1531.09 882.11 1574.62C773.083 1621.05 695.426 1776.75 585.433 1751.34C474.034 1725.6 531.422 1548.79 453.615 1475.62C363.096 1390.5 162.551 1421.09 115.306 1309.24C68.961 1199.53 144.868 1058.35 236.593 961.857C323.604 870.327 458.853 827.393 586.657 813.414Z" fill="#EFF7FF"/>
    <path fill-rule="evenodd" clip-rule="evenodd" d="M1703.83 4143.4C1625.1 4122.91 1593.55 4044.6 1527.03 4003.69C1456.53 3960.33 1325.6 3974.63 1305.12 3898.17C1284.57 3821.43 1406.41 3761.97 1441.61 3684.75C1475.66 3610.07 1432.09 3506.09 1505.63 3458.35C1579.16 3410.61 1667.93 3486.49 1754.65 3481.53C1847.13 3476.23 1954.68 3378.97 2023.43 3428.72C2093.06 3479.09 1992.6 3598.04 2022.47 3675.3C2057.23 3765.18 2208.72 3797.23 2203.95 3895.54C2199.27 3991.97 2097.89 4078.65 2000.56 4126.88C1908.24 4172.63 1798.5 4168.02 1703.83 4143.4Z" fill="#EFF7FF"/>
    <path fill-rule="evenodd" clip-rule="evenodd" d="M694.513 4866.6C638.669 4844.26 623.653 4784.45 578.946 4748.45C531.569 4710.3 433.623 4708.25 426.564 4650.82C419.478 4593.19 515.464 4561.62 549.499 4508.93C582.41 4457.98 561.233 4378.39 620.409 4350.73C679.576 4323.08 737 4386.56 801.396 4391.19C870.073 4396.12 959.498 4335.76 1004.92 4378.38C1050.92 4421.54 964.438 4498.31 978.337 4557.2C994.507 4625.72 1102.73 4663.35 1088.9 4734.22C1075.34 4803.75 991.562 4857.01 914.815 4882.77C842.011 4907.21 761.659 4893.45 694.513 4866.6Z" fill="#EFF7FF"/>
    <path d="M716.279 365.7C716.279 397.015 690.921 422.4 659.639 422.4C628.358 422.4 603 397.015 603 365.7C603 334.385 628.358 309 659.639 309C690.921 309 716.279 334.385 716.279 365.7Z" fill="#EFF7FF"/>
    <path d="M994.981 174.9C994.981 206.215 969.622 231.6 938.341 231.6C907.06 231.6 881.702 206.215 881.702 174.9C881.702 143.585 907.06 118.2 938.341 118.2C969.622 118.2 994.981 143.585 994.981 174.9Z" fill="#EFF7FF"/>
    <path d="M1158.61 576.3C1158.61 607.614 1133.25 633 1101.97 633C1070.69 633 1045.33 607.614 1045.33 576.3C1045.33 544.985 1070.69 519.6 1101.97 519.6C1133.25 519.6 1158.61 544.985 1158.61 576.3Z" fill="#EFF7FF"/>
    <path d="M1351 77.7C1351 109.015 1325.64 134.4 1294.36 134.4C1263.08 134.4 1237.72 109.015 1237.72 77.7C1237.72 46.3855 1263.08 21 1294.36 21C1325.64 21 1351 46.3855 1351 77.7Z" fill="#EFF7FF"/>
    <path d="M899.683 560.1C899.683 591.415 874.324 616.8 843.043 616.8C811.762 616.8 786.404 591.415 786.404 560.1C786.404 528.785 811.762 503.4 843.043 503.4C874.324 503.4 899.683 528.785 899.683 560.1Z" fill="#EFF7FF"/>
    <path d="M666.832 380.1L847.538 561L945.534 210.9L1101.07 561L1294.36 67.8M716.279 365.7C716.279 397.015 690.921 422.4 659.639 422.4C628.358 422.4 603 397.015 603 365.7C603 334.385 628.358 309 659.639 309C690.921 309 716.279 334.385 716.279 365.7ZM994.981 174.9C994.981 206.215 969.622 231.6 938.341 231.6C907.06 231.6 881.702 206.215 881.702 174.9C881.702 143.585 907.06 118.2 938.341 118.2C969.622 118.2 994.981 143.585 994.981 174.9ZM1158.61 576.3C1158.61 607.614 1133.25 633 1101.97 633C1070.69 633 1045.33 607.614 1045.33 576.3C1045.33 544.985 1070.69 519.6 1101.97 519.6C1133.25 519.6 1158.61 544.985 1158.61 576.3ZM1351 77.7C1351 109.015 1325.64 134.4 1294.36 134.4C1263.08 134.4 1237.72 109.015 1237.72 77.7C1237.72 46.3855 1263.08 21 1294.36 21C1325.64 21 1351 46.3855 1351 77.7ZM899.683 560.1C899.683 591.415 874.324 616.8 843.043 616.8C811.762 616.8 786.404 591.415 786.404 560.1C786.404 528.785 811.762 503.4 843.043 503.4C874.324 503.4 899.683 528.785 899.683 560.1Z" stroke="#EFF7FF" stroke-width="40.4986"/>
</svg>
