<?xml version="1.0" encoding="utf-8"?><svg viewBox="0 0 53 65" xmlns="http://www.w3.org/2000/svg" xmlns:xlink="http://www.w3.org/1999/xlink"><style>:root>svg{display:none}:root>svg:target{display:block}</style><svg fill="none" viewBox="0 0 13 12" id="arrow" xmlns="http://www.w3.org/2000/svg"><path d="M11.441 5L6.752 9.69 2.062 5" stroke="#222" stroke-width="2.653" stroke-linecap="round" stroke-linejoin="round"/></svg><svg fill="none" viewBox="0 0 33 27" id="logo" xmlns="http://www.w3.org/2000/svg"><path d="M5.586 15.096a2.338 2.338 0 11-4.677 0 2.338 2.338 0 014.677 0zM17.092 7.227a2.338 2.338 0 11-4.677 0 2.338 2.338 0 014.677 0zM23.848 23.782a2.338 2.338 0 11-4.677 0 2.338 2.338 0 014.677 0zM31.791 3.218a2.338 2.338 0 11-4.677 0 2.338 2.338 0 014.677 0zM13.158 23.114a2.338 2.338 0 11-4.677 0 2.338 2.338 0 014.677 0z" fill="#0085FF"/><path d="M3.544 15.69l7.46 7.46 4.047-14.438 6.421 14.439 7.98-20.341M5.587 15.096a2.338 2.338 0 11-4.677 0 2.338 2.338 0 014.677 0zm11.506-7.869a2.338 2.338 0 11-4.677 0 2.338 2.338 0 014.677 0zm6.756 16.555a2.338 2.338 0 11-4.677 0 2.338 2.338 0 014.677 0zM31.79 3.218a2.338 2.338 0 11-4.677 0 2.338 2.338 0 014.677 0zM13.158 23.114a2.338 2.338 0 11-4.677 0 2.338 2.338 0 014.677 0z" stroke="#0085FF" stroke-width="1.616"/></svg><svg fill="none" viewBox="0 0 22 17" id="mail" xmlns="http://www.w3.org/2000/svg"><path d="M19.06.38H2.822c-1.116 0-2.03.914-2.03 2.03v12.18c0 1.116.914 2.03 2.03 2.03h16.24c1.116 0 2.03-.914 2.03-2.03V2.41c0-1.117-.914-2.03-2.03-2.03zm-.405 4.314l-6.638 4.151a2.01 2.01 0 01-2.152 0L3.227 4.694a.862.862 0 11.913-1.462l6.801 4.253 6.8-4.253a.862.862 0 11.914 1.462z" fill="gray"/></svg><svg fill="none" viewBox="0 0 51 53" id="s-descr1" xmlns="http://www.w3.org/2000/svg"><path d="M49.682 22.984l-2.267-3.204a3.308 3.308 0 01-.569-1.371C45.344 8.159 36.246.369 25.683.289l-.154-.001a21.527 21.527 0 00-15.26 6.283c-4.027 3.992-6.252 9.268-6.26 14.857 0 2.567.443 5.041 1.316 7.352a1.871 1.871 0 002.41 1.088c.34-.13.594-.365.8-.636.375-.495.524-1.149.288-1.773-.714-1.888-1.077-3.917-1.077-6.027.009-4.584 1.84-8.92 5.156-12.208a17.817 17.817 0 0112.627-5.198h.127c8.735.067 16.255 6.483 17.498 14.96a7.017 7.017 0 001.214 2.96l2.268 3.206a.707.707 0 01-.157.978l-3.104 2.374a1.87 1.87 0 00-.733 1.485v8.167c0 .433-.37.785-.823.785h-5.047a1.87 1.87 0 00-1.869 1.87v9.943a1.87 1.87 0 003.738 0v-8.075h3.178c2.515 0 4.56-2.03 4.56-4.523v-7.244l2.356-1.802c1.914-1.436 2.336-4.187.947-6.126z" fill="#0085FF"/><path d="M16.787 39.155a1.87 1.87 0 00-1.312 2.295c.069.252.103.513.103.799v8.504a1.87 1.87 0 003.738 0v-8.504a6.77 6.77 0 00-.234-1.782 1.869 1.869 0 00-2.295-1.312z" fill="#0085FF"/><path d="M25.686 33.034a12.18 12.18 0 008.62-3.55 12.044 12.044 0 003.575-8.593c0-3.247-1.27-6.3-3.575-8.594-4.752-4.732-12.486-4.734-17.24 0a12.045 12.045 0 00-3.574 8.594c0 2.614.835 5.096 2.36 7.164L12.2 31.723l-.453-.452a1.85 1.85 0 00-1.226-.527 1.843 1.843 0 00-1.412.527l-7.301 7.27A4.403 4.403 0 00.5 41.68a4.444 4.444 0 004.45 4.437 4.444 4.444 0 003.145-1.294l7.302-7.27a1.868 1.868 0 000-2.648l-.55-.546 3.655-3.67a12.2 12.2 0 007.185 2.344zm5.983-18.089a8.335 8.335 0 012.474 5.946c0 2.245-.88 4.356-2.474 5.945-3.294 3.28-8.651 3.283-11.953.01-.004-.004-.005-.01-.01-.014-.003-.004-.01-.006-.014-.01a8.334 8.334 0 01-2.463-5.931c0-2.246.88-4.357 2.474-5.946 3.299-3.283 8.666-3.283 11.965 0zM4.444 42.175a.696.696 0 010-.986l5.982-5.956 1.002.997-5.971 5.946a.72.72 0 01-1.013 0z" fill="#0085FF"/></svg><svg fill="none" viewBox="0 0 53 54" id="s-descr2" xmlns="http://www.w3.org/2000/svg"><path d="M52.446 11.762a1.893 1.893 0 00-.918-3.184c-1.023-.232-1.988-.685-2.87-1.271l1.403-1.403a1.892 1.892 0 10-2.677-2.677L45.982 4.63c-.587-.882-1.039-1.847-1.272-2.87a1.894 1.894 0 00-3.184-.917c-2.385 2.385-4.084 5.303-5.064 8.576a20.649 20.649 0 00-8.644-2.796l.001-3.295a1.893 1.893 0 00-3.785 0v3.295c-9.98.904-17.943 8.868-18.847 18.847H1.893a1.893 1.893 0 000 3.785h3.294c.904 9.98 8.868 17.942 18.846 18.847v3.294a1.893 1.893 0 003.786 0v-3.294c9.979-.904 17.942-8.868 18.846-18.847h3.296a1.893 1.893 0 000-3.785h-3.295a20.65 20.65 0 00-2.796-8.644c3.273-.98 6.19-2.679 8.576-5.064zM44.48 8.79c.004.004.005.009.008.012.003.003.008.004.011.008.87.867 1.858 1.616 2.933 2.21-2.313 1.575-5.04 2.554-8.039 2.876.322-2.999 1.302-5.725 2.876-8.039a13.23 13.23 0 002.211 2.933zM25.926 38.583c-6.187 0-11.22-5.033-11.22-11.22s5.034-11.22 11.22-11.22c2.412 0 4.642.771 6.473 2.07l-2.541 2.542c-1.156-.69-2.49-1.113-3.932-1.113-4.257 0-7.721 3.464-7.721 7.721s3.464 7.721 7.721 7.721 7.721-3.464 7.721-7.72c0-1.442-.422-2.777-1.113-3.933l2.541-2.541a11.148 11.148 0 012.072 6.473c0 6.187-5.033 11.221-11.221 11.221zm3.935-11.22a3.94 3.94 0 01-3.935 3.936 3.94 3.94 0 01-3.935-3.936 3.94 3.94 0 013.935-3.935c.38 0 .74.071 1.087.172l-2.419 2.419a1.892 1.892 0 102.676 2.677l2.42-2.42c.1.348.171.708.171 1.087zm5.706-13.213l-.077.973-.39.391a14.916 14.916 0 00-7.282-3.024v-2.064a16.938 16.938 0 017.841 2.96c-.028.255-.07.506-.092.764zm-11.534-1.66c-6.761.857-12.124 6.22-12.981 12.982H8.987c.876-7.891 7.155-14.17 15.046-15.046v2.064zM11.052 29.256c.857 6.761 6.22 12.124 12.98 12.981v2.065c-7.89-.876-14.169-7.155-15.045-15.046h2.065zm16.767 12.981c6.76-.857 12.124-6.22 12.981-12.98h2.064c-.876 7.89-7.154 14.169-15.045 15.045v-2.065zm12.98-16.766a14.916 14.916 0 00-3.024-7.281l.392-.391.972-.077c.259-.02.509-.064.764-.092a16.937 16.937 0 012.96 7.84H40.8z" fill="#0085FF"/></svg><svg fill="none" viewBox="0 0 51 51" id="s-descr3" xmlns="http://www.w3.org/2000/svg"><path d="M49.33 20.49l-3.971-1.458a20.778 20.778 0 00-1.394-3.361l1.777-3.84a1.782 1.782 0 00-.357-2.013L40.97 5.403a1.781 1.781 0 00-2.013-.358l-3.84 1.778a20.795 20.795 0 00-3.36-1.394l-1.46-3.971a1.786 1.786 0 00-1.676-1.17h-6.243c-.748 0-1.418.468-1.675 1.17l-1.46 3.972a20.8 20.8 0 00-3.36 1.393l-3.84-1.778a1.781 1.781 0 00-2.013.358L5.615 9.818a1.782 1.782 0 00-.358 2.013l1.777 3.84a20.767 20.767 0 00-1.393 3.36L1.67 20.49c-.702.259-1.17.928-1.17 1.677v6.243c0 .749.468 1.418 1.17 1.677l3.971 1.457a20.78 20.78 0 001.394 3.362l-1.777 3.84a1.782 1.782 0 00.357 2.012l4.415 4.415c.53.531 1.34.673 2.013.358l3.84-1.778a20.795 20.795 0 003.36 1.394l1.46 3.971c.258.702.927 1.17 1.676 1.17h6.243c.748 0 1.418-.468 1.675-1.17l1.46-3.972a20.808 20.808 0 003.36-1.394l3.84 1.778a1.784 1.784 0 002.013-.357l4.416-4.416c.53-.529.673-1.333.357-2.012l-1.777-3.84a20.767 20.767 0 001.394-3.362l3.97-1.457a1.787 1.787 0 001.17-1.677v-6.243c0-.748-.468-1.417-1.17-1.677zm-2.401 6.672l-3.649 1.34c-.545.201-.96.655-1.11 1.217a17.207 17.207 0 01-1.748 4.22 1.782 1.782 0 00-.077 1.646l1.632 3.529-2.65 2.652-3.53-1.634a1.788 1.788 0 00-1.648.077 17.099 17.099 0 01-4.216 1.748 1.788 1.788 0 00-1.218 1.11l-1.34 3.65h-3.75l-1.34-3.65a1.788 1.788 0 00-1.218-1.11 17.1 17.1 0 01-4.216-1.748 1.787 1.787 0 00-1.648-.077l-3.53 1.634-2.65-2.652 1.632-3.53a1.78 1.78 0 00-.077-1.646 17.212 17.212 0 01-1.748-4.22 1.787 1.787 0 00-1.11-1.216l-3.648-1.34v-3.749l3.648-1.34c.546-.2.96-.654 1.11-1.216a17.21 17.21 0 011.748-4.22 1.782 1.782 0 00.077-1.646l-1.632-3.53 2.65-2.651 3.53 1.633c.53.246 1.142.218 1.648-.076a17.099 17.099 0 014.216-1.748 1.788 1.788 0 001.218-1.11l1.34-3.65h3.75l1.34 3.65c.201.546.656.96 1.218 1.11 1.479.392 2.897.98 4.217 1.748a1.782 1.782 0 001.647.077l3.53-1.634 2.65 2.652-1.632 3.529a1.78 1.78 0 00.077 1.647 17.216 17.216 0 011.748 4.22c.15.561.565 1.015 1.11 1.216l3.649 1.34v3.748z" fill="#0085FF"/><path d="M33.76 27.34l-1.946-1.259c1.144-1.405 1.858-3.174 1.858-5.123 0-4.505-3.666-8.171-8.172-8.171s-8.171 3.665-8.171 8.17c0 1.95.714 3.718 1.857 5.124l-1.946 1.26a7.126 7.126 0 00-3.268 6.006V36c0 .986.799 1.786 1.785 1.786h19.486c.987 0 1.786-.8 1.786-1.786v-2.654a7.126 7.126 0 00-3.268-6.007zm-16.217 6.007c0-1.221.613-2.345 1.636-3.008l2.992-1.935a8.096 8.096 0 003.33.725c1.188 0 2.31-.268 3.329-.726l2.992 1.937a3.568 3.568 0 011.636 3.007v.868H17.543v-.868zM20.9 20.958c0-2.536 2.063-4.6 4.6-4.6 2.538 0 4.6 2.064 4.6 4.6 0 2.537-2.062 4.6-4.6 4.6a4.605 4.605 0 01-4.6-4.6z" fill="#0085FF"/></svg><svg fill="none" viewBox="0 0 30 51" id="s-descr4" xmlns="http://www.w3.org/2000/svg"><path d="M29.809 25.289c0-5.134-2.61-9.667-6.567-12.336V2.074c0-.986-.796-1.785-1.78-1.785H8.537c-.983 0-1.78.8-1.78 1.785v10.879C2.8 15.623.19 20.155.19 25.289c0 5.133 2.61 9.665 6.566 12.335v10.879c0 .986.797 1.786 1.78 1.786h12.926c.983 0 1.78-.8 1.78-1.786V37.624c3.956-2.67 6.566-7.202 6.566-12.335zM10.317 46.717v-7.344c1.474.494 3.045.773 4.683.773a14.68 14.68 0 004.683-.773v7.344h-9.366zM15 36.575c-6.202 0-11.25-5.064-11.25-11.287 0-6.223 5.047-11.287 11.25-11.287s11.25 5.064 11.25 11.287c0 6.223-5.046 11.287-11.25 11.287zm4.683-32.716v7.345A14.677 14.677 0 0015 10.43c-1.638 0-3.209.28-4.683.774V3.86h9.366z" fill="#0085FF"/><path d="M20.468 25.878l-3.688-1.72v-3.803c0-.986-.797-1.786-1.78-1.786s-1.78.8-1.78 1.786v4.942c0 .695.402 1.326 1.03 1.619l4.716 2.2a1.783 1.783 0 002.366-.866 1.79 1.79 0 00-.864-2.372z" fill="#0085FF"/></svg><svg fill="none" viewBox="0 0 51 57" id="s-descr5" xmlns="http://www.w3.org/2000/svg"><path d="M49.606 24.671l-2.433-3.42a3.48 3.48 0 01-.61-1.493C44.927 8.735 35.15.365 23.818.288 17.558.258 11.676 2.643 7.242 7.038 2.91 11.329.515 17.003.5 23.016.48 30.852 4.478 38.055 11.194 42.28c1.1.691 1.755 1.854 1.755 3.108v9.146a2.01 2.01 0 004.019 0V45.39c0-2.645-1.358-5.08-3.633-6.51-5.537-3.484-8.833-9.412-8.816-15.855.011-4.935 1.983-9.6 5.551-13.135 3.67-3.635 8.582-5.557 13.721-5.583 9.37.064 17.451 6.96 18.798 16.039a7.512 7.512 0 001.31 3.231L46.331 27c.242.34.171.805-.162 1.058l-3.343 2.547c-.5.38-.792.972-.792 1.598v8.798c0 .462-.398.838-.888.838h-5.42c-1.11 0-2.01.9-2.01 2.009v10.687a2.01 2.01 0 004.018 0v-8.678h3.412c2.705 0 4.907-2.178 4.907-4.856v-7.803l2.552-1.944a4.768 4.768 0 001.001-6.583z" fill="#0085FF"/><path d="M33.019 20.082l-5.33-2.485 2.137-4.582a3.109 3.109 0 00-.92-3.795A3.108 3.108 0 0025 9.284l-11.997 9.758a3.107 3.107 0 00-1.155 2.812 3.11 3.11 0 001.784 2.466l5.33 2.485-2.138 4.582a3.11 3.11 0 00.922 3.795c.569.438 1.24.657 1.912.657.707 0 1.412-.24 1.993-.722l11.997-9.758a3.109 3.109 0 001.154-2.815 3.106 3.106 0 00-1.783-2.462zm-11.551 3.459l-4.835-2.255 7.88-6.385-.843 1.806v.003a3.131 3.131 0 001.513 4.153l4.834 2.254-7.878 6.385.841-1.806a3.13 3.13 0 00-1.512-4.155z" fill="#0085FF"/></svg><svg fill="none" viewBox="0 0 50 44" id="s-descr6" xmlns="http://www.w3.org/2000/svg"><path d="M47.455 31.805l-.88-.57a6.243 6.243 0 001.06-3.483 6.291 6.291 0 00-6.285-6.283 6.29 6.29 0 00-6.283 6.283c0 1.288.392 2.484 1.059 3.482l-.883.57c-.559.363-1.005.836-1.392 1.35l-3.71-1.564c.127-.455.216-.924.216-1.418 0-2.325-1.497-4.289-3.572-5.028v-2.62h5.078c.987 0 1.786-.8 1.786-1.786v-5.44c0-1.897-.95-3.644-2.544-4.674l-.881-.57a6.245 6.245 0 001.058-3.482A6.29 6.29 0 0025 .289a6.29 6.29 0 00-6.283 6.283c0 1.287.391 2.484 1.058 3.482l-.88.57a5.544 5.544 0 00-2.545 4.675v5.44c0 .986.799 1.785 1.786 1.785h5.078v2.62c-2.074.739-3.572 2.703-3.572 5.027 0 .494.09.964.215 1.419l-3.709 1.564c-.387-.514-.833-.988-1.391-1.35h-.002l-.882-.57a6.244 6.244 0 001.06-3.482A6.29 6.29 0 008.65 21.47a6.291 6.291 0 00-6.285 6.283c0 1.288.392 2.485 1.06 3.483l-.88.569A5.541 5.541 0 000 36.478v5.44c0 .987.799 1.787 1.786 1.787h13.726c.987 0 1.786-.8 1.786-1.786v-5.373l4.666-1.969a5.318 5.318 0 006.072 0l4.666 1.969v5.373c0 .986.8 1.786 1.786 1.786h13.726c.987 0 1.786-.8 1.786-1.786v-5.44c0-1.897-.95-3.644-2.544-4.674h-.001zM22.288 6.57A2.715 2.715 0 0125 3.86 2.715 2.715 0 0127.71 6.57 2.716 2.716 0 0125 9.284a2.716 2.716 0 01-2.712-2.713zm-2.366 12.382v-3.654c0-.68.34-1.308.912-1.676l1.876-1.214c.711.28 1.48.446 2.29.446s1.578-.166 2.29-.446l1.876 1.214c.572.369.912.995.912 1.676v3.654H19.922zm18.717 8.8a2.715 2.715 0 012.711-2.712 2.716 2.716 0 012.713 2.711 2.715 2.715 0 01-2.713 2.712 2.715 2.715 0 01-2.711-2.712zm-2.365 8.725c0-.68.34-1.306.91-1.675l1.877-1.214c.71.28 1.48.446 2.29.446.809 0 1.577-.166 2.289-.446l1.877 1.214c.572.37.911.995.911 1.675v3.655H36.275v-3.655zM5.937 27.752a2.715 2.715 0 012.713-2.711 2.715 2.715 0 012.711 2.711 2.715 2.715 0 01-2.711 2.712 2.715 2.715 0 01-2.713-2.712zm2.713 6.283c.81 0 1.578-.166 2.29-.446l1.876 1.214c.57.369.91.996.91 1.675v3.655H3.572v-3.655c0-.68.34-1.306.912-1.675l1.876-1.214c.712.28 1.48.446 2.29.446zm14.564-3.863c0-.982.796-1.78 1.777-1.784l.009.001.008-.001c.981.005 1.777.802 1.777 1.784 0 .984-.8 1.785-1.785 1.785a1.787 1.787 0 01-1.786-1.785z" fill="#0085FF"/></svg><svg fill="none" viewBox="0 0 50 47" id="s-descr7" xmlns="http://www.w3.org/2000/svg"><path d="M42.416.289H7.589C3.404.289 0 3.693 0 7.878v23.19c0 4.052 3.195 7.373 7.197 7.575v5.126c0 1.138.637 2.154 1.66 2.65.414.2.853.299 1.29.299.647 0 1.288-.217 1.823-.638l5.013-3.963a16.136 16.136 0 019.966-3.464h15.462c4.185 0 7.589-3.404 7.589-7.589V7.874C50 3.69 46.598.288 42.416.288zm4.012 30.775a4.023 4.023 0 01-4.017 4.017H26.948a19.72 19.72 0 00-12.18 4.233l-4 3.163v-5.61c0-.987-.8-1.786-1.786-1.786H7.584a4.017 4.017 0 01-4.013-4.013V7.878A4.023 4.023 0 017.59 3.86h34.827c2.213 0 4.012 1.8 4.012 4.013v23.191z" fill="#0085FF"/><path d="M23.89 7.026c-.987 0-1.785.8-1.785 1.786v.585c-5.434.861-9.606 5.565-9.606 11.237 0 6.281 5.11 11.392 11.391 11.392 5.673 0 10.377-4.173 11.24-9.607h.584c.987 0 1.786-.8 1.786-1.785 0-7.504-6.105-13.608-13.61-13.608zm-7.82 13.608c0-3.695 2.585-6.782 6.035-7.595v7.595c0 .987.798 1.786 1.785 1.786h7.596c-.813 3.451-3.9 6.035-7.596 6.035-4.31 0-7.82-3.508-7.82-7.82zm9.606-1.785v-8.093a10.066 10.066 0 018.093 8.093h-8.093z" fill="#0085FF"/></svg><svg fill="none" viewBox="0 0 50 46" id="s-descr8" xmlns="http://www.w3.org/2000/svg"><path d="M47.654 32.3h-6.097V6.23A5.947 5.947 0 0035.616.29L5.939.29A5.946 5.946 0 000 6.23v5.148a2.35 2.35 0 002.347 2.347H8.44v25.292c0 1.742.592 3.391 1.666 4.647 1.143 1.334 2.684 2.07 4.34 2.07H43.995c3.312 0 6.006-3.013 6.006-6.718v-4.37a2.349 2.349 0 00-2.345-2.347h-.001zM35.616 3.86c.251 0 .482.071.709.144.955.306 1.66 1.172 1.66 2.227V32.3H19.23c-1.095 0-1.975.77-2.233 1.786-.047.184-.114.362-.114.56v4.371c0 1.706-1.115 3.146-2.435 3.146-.596 0-1.173-.291-1.628-.821-.52-.61-.808-1.434-.808-2.325l.002-32.786a5.86 5.86 0 00-.503-2.37h24.106zM3.572 6.23c0-1.306 1.061-2.368 2.502-2.368A2.37 2.37 0 018.442 6.23v3.924h-4.87V6.23zm42.856 32.787c0 1.705-1.114 3.146-2.434 3.146H19.722a7.25 7.25 0 00.732-3.146V35.87h25.973v3.147z" fill="#0085FF"/><path d="M17.612 21.71h14.775a1.785 1.785 0 100-3.57H17.612a1.785 1.785 0 100 3.57zM17.612 14.324h14.775a1.785 1.785 0 100-3.572H17.612a1.785 1.785 0 100 3.572zM17.612 29.097H25a1.785 1.785 0 100-3.571h-7.388a1.785 1.785 0 100 3.571z" fill="#0085FF"/></svg><svg fill="none" viewBox="0 0 50 51" id="s-descr9" xmlns="http://www.w3.org/2000/svg"><path d="M48.83 20.49l-3.971-1.457a20.778 20.778 0 00-1.394-3.362l1.777-3.84a1.782 1.782 0 00-.357-2.012L40.47 5.403a1.781 1.781 0 00-2.013-.357l-3.84 1.778a20.795 20.795 0 00-3.36-1.394l-1.46-3.972a1.786 1.786 0 00-1.676-1.17h-6.243c-.748 0-1.418.468-1.675 1.17l-1.46 3.972a20.8 20.8 0 00-3.36 1.394l-3.84-1.778a1.78 1.78 0 00-2.013.357L5.115 9.82a1.782 1.782 0 00-.358 2.012l1.777 3.84a20.767 20.767 0 00-1.393 3.361L1.17 20.49c-.702.26-1.17.928-1.17 1.677v6.243c0 .75.468 1.418 1.17 1.677l3.971 1.458a20.78 20.78 0 001.394 3.361l-1.777 3.84a1.783 1.783 0 00.357 2.013l4.415 4.415c.529.531 1.34.672 2.013.358l3.84-1.778a20.795 20.795 0 003.36 1.393l1.46 3.972c.258.702.927 1.17 1.676 1.17h6.243c.748 0 1.418-.468 1.675-1.17l1.46-3.972a20.799 20.799 0 003.36-1.394l3.84 1.778a1.784 1.784 0 002.013-.358l4.416-4.415c.53-.53.673-1.333.357-2.013l-1.777-3.84a20.767 20.767 0 001.394-3.361l3.97-1.458A1.787 1.787 0 0050 28.41v-6.243c0-.749-.468-1.418-1.17-1.677zm-2.401 6.673l-3.649 1.34c-.545.2-.96.654-1.11 1.217a17.207 17.207 0 01-1.748 4.219 1.782 1.782 0 00-.077 1.647l1.632 3.529-2.65 2.652-3.53-1.634a1.788 1.788 0 00-1.648.077 17.099 17.099 0 01-4.216 1.747 1.788 1.788 0 00-1.218 1.111l-1.34 3.649h-3.75l-1.34-3.65a1.788 1.788 0 00-1.218-1.11 17.097 17.097 0 01-4.216-1.748 1.787 1.787 0 00-1.648-.077l-3.53 1.634-2.65-2.652 1.632-3.529a1.78 1.78 0 00-.077-1.647A17.213 17.213 0 018.33 29.72a1.787 1.787 0 00-1.11-1.216l-3.648-1.34v-3.75l3.648-1.34c.546-.2.96-.653 1.11-1.216a17.21 17.21 0 011.748-4.219 1.782 1.782 0 00.077-1.647l-1.632-3.529 2.65-2.652 3.53 1.634c.53.246 1.142.218 1.648-.077a17.1 17.1 0 014.216-1.747 1.788 1.788 0 001.218-1.111l1.34-3.649h3.75l1.34 3.65c.201.546.656.96 1.218 1.11 1.479.391 2.897.98 4.217 1.748a1.783 1.783 0 001.647.076l3.53-1.633 2.65 2.652-1.632 3.529a1.78 1.78 0 00.077 1.646 17.216 17.216 0 011.748 4.22c.15.562.565 1.015 1.11 1.216l3.649 1.34v3.749z" fill="#0085FF"/><path d="M25 11.002c-7.877 0-14.285 6.41-14.285 14.286 0 7.877 6.409 14.286 14.285 14.286 7.877 0 14.286-6.409 14.286-14.286S32.877 11.002 25 11.002zM34.6 27.074h.954a10.724 10.724 0 01-8.767 8.767v-.955a1.785 1.785 0 10-3.571 0v.955a10.723 10.723 0 01-8.767-8.767h.954a1.785 1.785 0 100-3.572h-.954a10.723 10.723 0 018.767-8.767v.955a1.785 1.785 0 103.571 0v-.955a10.723 10.723 0 018.767 8.767H34.6a1.785 1.785 0 100 3.572z" fill="#0085FF"/><path d="M29.888 25.592l-3.102-1.443v-3.178a1.785 1.785 0 10-3.572 0v4.317c0 .695.403 1.326 1.033 1.62l4.134 1.923a1.784 1.784 0 002.372-.866 1.785 1.785 0 00-.865-2.373z" fill="#0085FF"/></svg><svg fill="none" viewBox="0 0 50 49" id="solution1" xmlns="http://www.w3.org/2000/svg"><path d="M36.471 10.201c-.204 0-.402.022-.604.03-.6-.96-1.268-1.874-2.07-2.677-2.914-2.893-6.77-4.486-10.858-4.486-2.591 0-5.077.652-7.312 1.87l.011-2.233c.008-1.617-1.943-2.436-3.091-1.298-.342.338-.535.799-.537 1.28l-.029 5.984a1.814 1.814 0 001.806 1.824l5.984.028c.481.002.944-.187 1.286-.525.987-.979.529-2.555-.644-2.986.824-.18 1.663-.306 2.526-.306 3.12 0 6.066 1.218 8.29 3.426.268.268.499.57.738.864a13.662 13.662 0 00-9.024 12.864c0 7.532 6.068 13.66 13.528 13.66C43.931 37.519 50 31.39 50 23.86c0-7.53-6.068-13.659-13.529-13.659zm-9.89 13.66c0-5.527 4.436-10.022 9.89-10.022 5.454 0 9.891 4.495 9.891 10.021 0 5.526-4.437 10.021-9.89 10.021-5.455 0-9.892-4.495-9.892-10.02z" fill="#0085FF"/><path d="M36.471 19.496c.662 0 1.2.57 1.2 1.272a1.818 1.818 0 103.638 0 4.905 4.905 0 00-3.095-4.567c-.176-.82-.87-1.446-1.743-1.446-.872 0-1.567.627-1.743 1.446a4.906 4.906 0 00-3.095 4.567c0 2.709 2.17 4.91 4.838 4.91.662 0 1.2.573 1.2 1.274 0 .702-.538 1.272-1.2 1.272-.662 0-1.2-.57-1.2-1.272a1.818 1.818 0 10-3.638 0 4.905 4.905 0 003.095 4.567c.176.82.87 1.446 1.743 1.446.872 0 1.567-.626 1.743-1.446a4.905 4.905 0 003.095-4.567c0-2.709-2.17-4.91-4.838-4.91-.662 0-1.2-.573-1.2-1.274 0-.702.538-1.272 1.2-1.272zM30.311 38.715l-5.857-1.23a1.814 1.814 0 00-1.364.256c-1.189.776-1.031 2.471.095 3.1-.082 0-.163.012-.245.012a11.641 11.641 0 01-8.29-3.424 11.765 11.765 0 01-1.8-2.324h4.112a1.818 1.818 0 001.819-1.818v-4.26c0-2.04-1.024-3.92-2.737-5.03l-1.111-.718a6.729 6.729 0 001.237-3.882 6.789 6.789 0 00-6.78-6.782 6.789 6.789 0 00-6.78 6.782c0 1.446.462 2.78 1.236 3.882l-1.11.718A5.973 5.973 0 000 29.027v4.26c0 1.005.814 1.818 1.819 1.818H8.8a15.163 15.163 0 003.278 4.896 15.257 15.257 0 0010.861 4.49c1.53 0 3.015-.24 4.447-.675l-.454 2.158c-.333 1.582 1.414 2.776 2.768 1.893.403-.263.684-.676.784-1.147l1.23-5.856a1.815 1.815 0 00-1.403-2.149zM3.638 29.027c0-.8.402-1.54 1.074-1.975l2.134-1.38a6.73 6.73 0 002.544.505c.9 0 1.756-.184 2.543-.505l2.134 1.38a2.344 2.344 0 011.076 1.975v2.441H3.638v-2.44zm2.609-9.63a3.147 3.147 0 013.143-3.144 3.147 3.147 0 013.143 3.144 3.147 3.147 0 01-3.143 3.142 3.147 3.147 0 01-3.143-3.142z" fill="#0085FF"/></svg><svg fill="none" viewBox="0 0 50 50" id="solution2" xmlns="http://www.w3.org/2000/svg"><path d="M30.738 10.069l-.718-.465a5.91 5.91 0 00.942-3.188A5.969 5.969 0 0025 .453a5.969 5.969 0 00-5.961 5.963c0 1.175.353 2.264.942 3.188l-.718.465a5.279 5.279 0 00-2.42 4.448v5.05c0 .988.799 1.786 1.785 1.786h12.744c.986 0 1.785-.798 1.785-1.785v-5.05a5.279 5.279 0 00-2.42-4.45zM22.61 6.416A2.394 2.394 0 0125 4.025a2.393 2.393 0 012.39 2.39A2.393 2.393 0 0125 8.806a2.393 2.393 0 01-2.39-2.39zm.285 5.557c.657.25 1.362.403 2.105.403.744 0 1.448-.153 2.105-.402l1.693 1.095c.494.319.789.86.789 1.449v3.264h-9.173v-3.264c0-.588.294-1.13.789-1.45l1.692-1.095zM13.895 38.307l-.719-.465c.59-.925.943-2.014.943-3.19a5.967 5.967 0 00-5.961-5.96 5.967 5.967 0 00-5.961 5.96 5.91 5.91 0 00.942 3.19l-.72.465A5.274 5.274 0 000 42.754v5.052c0 .987.8 1.786 1.786 1.786h12.742c.987 0 1.786-.8 1.786-1.786v-5.052a5.274 5.274 0 00-2.42-4.447h.001zm-8.127-3.655a2.393 2.393 0 012.39-2.389 2.393 2.393 0 012.39 2.39 2.393 2.393 0 01-2.39 2.39 2.393 2.393 0 01-2.39-2.39zm.284 5.56a5.9 5.9 0 002.106.402c.743 0 1.448-.153 2.104-.403l1.693 1.096c.493.319.788.86.788 1.447v3.266H3.572v-3.266c0-.587.294-1.128.787-1.447l1.693-1.096zM47.58 38.307l-.72-.465c.59-.925.943-2.015.943-3.19a5.967 5.967 0 00-5.961-5.96 5.967 5.967 0 00-5.961 5.96 5.91 5.91 0 00.943 3.19l-.719.465a5.275 5.275 0 00-2.42 4.447v5.052c0 .987.8 1.786 1.786 1.786h12.743c.986 0 1.786-.8 1.786-1.786v-5.052a5.274 5.274 0 00-2.42-4.447zm-8.128-3.655a2.393 2.393 0 012.39-2.389 2.393 2.393 0 012.39 2.39 2.393 2.393 0 01-2.39 2.39 2.393 2.393 0 01-2.39-2.39zm.285 5.56c.657.249 1.362.402 2.105.402a5.9 5.9 0 002.105-.403l1.694 1.096c.493.319.787.86.787 1.447v3.266h-9.171v-3.266c0-.587.294-1.128.788-1.447l1.692-1.096zM25 29.94c1.018 0 1.845.847 1.845 1.89a1.785 1.785 0 103.572 0 5.449 5.449 0 00-3.662-5.142c-.083-.91-.823-1.63-1.755-1.63-.931 0-1.672.72-1.755 1.63a5.449 5.449 0 00-3.662 5.143c0 3.011 2.43 5.461 5.417 5.461 1.018 0 1.845.85 1.845 1.892 0 1.043-.827 1.89-1.845 1.89s-1.845-.847-1.845-1.89a1.785 1.785 0 10-3.572 0 5.449 5.449 0 003.662 5.142c.083.91.823 1.631 1.755 1.631.931 0 1.672-.72 1.755-1.63a5.449 5.449 0 003.662-5.143c0-3.013-2.43-5.463-5.417-5.463-1.018 0-1.845-.848-1.845-1.89 0-1.043.827-1.891 1.845-1.891z" fill="#0085FF"/></svg><svg fill="none" viewBox="0 0 50 54" id="solution3" xmlns="http://www.w3.org/2000/svg"><path d="M49.587 39.163l-3.543-8.82c-.93-2.318-3.337-3.549-5.583-2.867l-.546.155 5.398-5.498a4.623 4.623 0 001.075-4.725c-.542-1.625-1.907-2.79-3.563-3.042l-10.364-1.574c-.21-.031-.395-.18-.5-.4l-4.635-9.814C26.576.988 25.039 0 23.317 0c-1.723 0-3.26.987-4.01 2.577l-4.636 9.815a.683.683 0 01-.5.4L3.808 14.366c-1.657.252-3.022 1.417-3.564 3.04a4.626 4.626 0 001.076 4.726l7.5 7.639c.179.183.263.465.218.735l-1.77 10.788c-.29 1.771.425 3.505 1.867 4.524a4.344 4.344 0 004.631.265l8.264-4.54c-.206.397-.382.81-.5 1.247a6.336 6.336 0 003.738 7.523l5.718 2.313a5.703 5.703 0 004.86-.271l11.163-6.041a5.71 5.71 0 002.578-7.151zm-4.383 3.82l-11.16 6.04a1.911 1.911 0 01-1.636.091l-5.719-2.313a2.543 2.543 0 01-.003-4.712l.72-.293.583 1.448c.013.043.03.086.046.128a1.901 1.901 0 002.466 1.054 1.895 1.895 0 001.055-2.465l-6.64-16.531a1.287 1.287 0 112.391-.96l3.215 8.003a1.885 1.885 0 002.275 1.116l8.734-2.48c.457-.137.83.226 1 .645l3.542 8.82a1.924 1.924 0 01-.868 2.408zm-33.882-.258a.807.807 0 01-.315-.817l1.77-10.789a4.653 4.653 0 00-1.254-4.002l-7.5-7.64c-.329-.336-.224-.753-.184-.872.053-.162.196-.441.538-.493l10.364-1.575a4.464 4.464 0 003.357-2.527l4.635-9.815c.167-.353.437-.406.583-.406h.001c.146 0 .416.053.583.407l4.636 9.812a4.458 4.458 0 003.356 2.53l10.364 1.575c.342.052.484.33.538.494.04.119.144.535-.185.871l-7.5 7.64c-.6.613-.981 1.386-1.17 2.21l-.537.152-2.58-6.422a5.093 5.093 0 00-2.909-2.854 5.106 5.106 0 00-4.07.205c-2.348 1.172-3.421 3.998-2.443 6.433l4.443 11.06-.42-.23a4.352 4.352 0 00-2.106-.545c-.722 0-1.445.181-2.103.543l-9.27 5.093a.548.548 0 01-.622-.038z" fill="#0085FF"/></svg><svg fill="none" viewBox="0 0 50 63" id="solution4" xmlns="http://www.w3.org/2000/svg"><path d="M48.786 32.97a6.34 6.34 0 00-5.209-2.684H29.28c1.173-2.822 1.87-4.82 1.87-9.06 0-.01-.005-.017-.005-.027 0-.01.006-.018.006-.027 0-2.997-2.106-5.515-3.941-7.373-1.624-1.648-4.077-1.778-5.83-.307-1.65 1.379-1.657 3.284-1.662 4.676-.001.339-.001.692-.027 1.053l-.105 1.449c-1.134 2.573-2.471 3.893-4.15 5.531-.236.231-.5.502-.752.752-.368-.723-1.098-1.232-1.965-1.232H2.225A2.225 2.225 0 000 27.946V60.25c0 1.23.997 2.226 2.226 2.226h10.493a2.225 2.225 0 002.225-2.226v-2.338H32.98c4.93 0 9.42-2.905 11.441-7.401l5.235-11.672a6.503 6.503 0 00-.87-5.869zM10.493 58.024H4.45V30.172h6.043v27.853zM45.519 37.21l-5.157 11.476a8.105 8.105 0 01-7.383 4.774H14.944V33.311l.795-.96c.971-1.174 1.904-2.085 2.806-2.965 2.146-2.07 5.694-5.71 5.585-9.845.034-.466.037-.921.038-1.36.001-.34.004-.815.036-1.092.775.793 2.496 2.644 2.496 4.136 0 3.71-.539 4.993-1.84 8.088l-.974 2.356a2.224 2.224 0 002.06 3.067h17.633c.637 0 1.217.301 1.593.825.386.54.484 1.213.347 1.65zM24.099 10.73a2.225 2.225 0 002.225-2.225V2.393a2.225 2.225 0 00-4.45 0v6.112c0 1.23.996 2.226 2.225 2.226zM14.286 10.095c.433.425.995.637 1.558.637a2.225 2.225 0 001.558-3.814l-4.126-4.05a2.224 2.224 0 10-3.116 3.177l4.126 4.05zM32.354 10.73c.563 0 1.125-.211 1.558-.636l4.127-4.05c.877-.86.89-2.27.03-3.146a2.223 2.223 0 00-3.147-.03l-4.126 4.049a2.225 2.225 0 001.558 3.814z" fill="#0085FF"/></svg><svg fill="none" viewBox="0 0 50 65" id="solution5" xmlns="http://www.w3.org/2000/svg"><path d="M12.4 15.343h13.028a2.284 2.284 0 002.285-2.285 2.284 2.284 0 00-2.285-2.285H12.4a2.284 2.284 0 100 4.57zM18.573 18.485H12.4a2.284 2.284 0 100 4.57h6.173a2.284 2.284 0 100-4.57zM16.628 26.202h-4.224a2.284 2.284 0 100 4.57h4.224a2.284 2.284 0 002.286-2.285 2.283 2.283 0 00-2.286-2.285z" fill="#0085FF"/><path d="M49.568 50.105l-3.425-8.524c-.991-2.462-3.548-3.762-5.943-3.04l-2.372.674v-25.61a5.892 5.892 0 00-5.884-5.886H28.76V6.23a2.284 2.284 0 00-2.285-2.285h-1.94A6.08 6.08 0 0018.916.167 6.074 6.074 0 0013.3 3.945h-1.94A2.284 2.284 0 009.075 6.23V7.72H5.89A5.897 5.897 0 000 13.609v32.104a5.896 5.896 0 005.89 5.889h16.72c-.446.627-.819 1.308-1.022 2.064a6.575 6.575 0 003.878 7.81l5.53 2.237a5.987 5.987 0 005.083-.282l10.791-5.843a5.975 5.975 0 002.699-7.482zm-4.873 3.464l-10.787 5.84c-.37.198-.808.227-1.199.066l-5.529-2.236a2.005 2.005 0 01-.002-3.713l.277-.112.384.955a2.287 2.287 0 104.298-1.56l-6.42-15.977a.789.789 0 01.384-1.004.795.795 0 011.087.415l3.106 7.736a2.269 2.269 0 002.745 1.346l8.45-2.399c.204-.071.353.208.416.36l3.425 8.521a1.41 1.41 0 01-.635 1.762zM4.57 45.712V13.609c0-.716.605-1.321 1.319-1.321h3.186v1.5a2.284 2.284 0 002.285 2.284h15.114a2.284 2.284 0 002.285-2.285v-1.5h3.184c.726 0 1.315.592 1.315 1.317V39.1l-1.832-4.562a5.38 5.38 0 00-3.076-3.015 5.366 5.366 0 00-4.293.216c-2.479 1.237-3.612 4.222-2.581 6.795l3.412 8.496h-19c-.714 0-1.319-.605-1.319-1.319zM15.139 8.515a2.284 2.284 0 002.285-2.285 1.494 1.494 0 012.988 0 2.284 2.284 0 002.285 2.285h1.493v2.988H13.646V8.515h1.493z" fill="#0085FF"/></svg><svg fill="none" viewBox="0 0 50 39" id="solution6" xmlns="http://www.w3.org/2000/svg"><path d="M48.214.607h-35.03a1.786 1.786 0 000 3.571h33.244v19.77a1.786 1.786 0 003.572 0V2.392c0-.986-.8-1.785-1.786-1.785z" fill="#0085FF"/><path d="M42.514 6.884H7.485a1.786 1.786 0 000 3.571H40.73v19.77a1.786 1.786 0 003.572 0V8.67c0-.987-.8-1.786-1.786-1.786h-.001z" fill="#0085FF"/><path d="M38.601 14.946c0-.986-.8-1.786-1.786-1.786H1.785C.8 13.16 0 13.96 0 14.946v21.556c0 .986.8 1.786 1.786 1.786h35.03c.985 0 1.785-.8 1.785-1.786V14.946zm-3.571 19.77H3.57V16.733H35.03v17.985z" fill="#0085FF"/><path d="M19.3 19.475a6.258 6.258 0 00-6.25 6.25 6.258 6.258 0 006.25 6.25 6.258 6.258 0 006.25-6.25 6.258 6.258 0 00-6.25-6.25zm0 8.928a2.681 2.681 0 01-2.678-2.678 2.681 2.681 0 012.678-2.679 2.681 2.681 0 012.679 2.679 2.682 2.682 0 01-2.679 2.678zM8.558 23.939H8.54c-.986 0-1.776.8-1.776 1.786s.808 1.785 1.794 1.785a1.786 1.786 0 000-3.571zM30.114 23.939h-.018c-.986 0-1.776.8-1.776 1.786s.808 1.785 1.794 1.785a1.786 1.786 0 000-3.571z" fill="#0085FF"/></svg><svg fill="none" viewBox="0 0 50 51" id="solution7" xmlns="http://www.w3.org/2000/svg"><path d="M49.293 22.932c-5.405-8.04-14.487-12.84-24.292-12.84-9.806 0-18.888 4.8-24.293 12.839a4.115 4.115 0 000 4.615c5.212 7.752 13.845 12.478 23.247 12.806.603.054 1.218.063 1.822.008 9.506-.247 18.254-4.99 23.514-12.814a4.11 4.11 0 000-4.614h.002zm-22.82 13.79a14.584 14.584 0 01-3.12-.01c-5.764-.765-10.225-5.59-10.225-11.424 0-6.364 5.302-11.541 11.82-11.541 6.518 0 11.822 5.177 11.822 11.541 0 5.859-4.498 10.7-10.297 11.435zM3.676 25.554a.558.558 0 010-.632c2.162-3.215 5.018-5.802 8.278-7.705a14.804 14.804 0 00-2.403 8.071c0 2.902.852 5.607 2.303 7.911-3.218-1.898-6.038-4.463-8.178-7.645zm42.648 0c-2.176 3.237-5.055 5.838-8.342 7.745 1.49-2.326 2.365-5.067 2.365-8.01 0-3.012-.912-5.813-2.464-8.172 3.33 1.912 6.243 4.537 8.442 7.807.13.193.13.435-.001.63z" fill="#0085FF"/><path d="M24.95 19.144c-3.44 0-6.24 2.756-6.24 6.145 0 3.388 2.8 6.144 6.24 6.144 3.44 0 6.24-2.756 6.24-6.145 0-3.388-2.8-6.144-6.24-6.144zm0 8.717c-1.469 0-2.662-1.154-2.662-2.573 0-1.418 1.193-2.573 2.661-2.573s2.663 1.155 2.663 2.573c0 1.42-1.194 2.573-2.663 2.573zM24.95 8.398c.987 0 1.788-.8 1.788-1.785v-4.54c0-.985-.801-1.785-1.789-1.785-.988 0-1.788.8-1.788 1.786v4.539c0 .986.8 1.785 1.788 1.785zM24.95 42.178c-.988 0-1.79.799-1.79 1.785v4.54c0 .985.802 1.785 1.79 1.785.987 0 1.788-.8 1.788-1.786v-4.539c0-.986-.801-1.785-1.789-1.785zM33.88 8.398c.53 0 1.054-.234 1.407-.682l3.57-4.54A1.785 1.785 0 0038.555.67a1.792 1.792 0 00-2.512.302l-3.57 4.539a1.785 1.785 0 001.406 2.888zM14.612 7.716a1.788 1.788 0 002.512.302c.777-.61.912-1.733.302-2.508L13.855.97a1.793 1.793 0 00-2.512-.3 1.784 1.784 0 00-.302 2.507l3.571 4.539zM14.612 42.86l-3.571 4.54a1.784 1.784 0 001.406 2.888c.53 0 1.055-.235 1.408-.683l3.571-4.54a1.784 1.784 0 00-.302-2.507 1.79 1.79 0 00-2.512.302zM35.286 42.86a1.792 1.792 0 00-2.511-.302 1.785 1.785 0 00-.303 2.508l3.57 4.539a1.787 1.787 0 002.512.302c.777-.61.912-1.732.303-2.508l-3.57-4.539z" fill="#0085FF"/></svg><svg fill="none" viewBox="0 0 50 43" id="solution8" xmlns="http://www.w3.org/2000/svg"><path d="M49.862 21.96c-.085-.223-.252-.392-.385-.579L41 12.904V2.752c0-.987-.8-1.786-1.785-1.786h-9.483c-.986 0-1.785.799-1.785 1.786v5.357h-5.893V6.323c0-.987-.8-1.786-1.785-1.786h-9.483C9.8 4.537 9 5.337 9 6.323v6.581L.524 21.381c-.304.35-.538.786-.523 1.264v17.857c0 .987.8 1.786 1.785 1.786h46.428c.986 0 1.786-.799 1.786-1.786V22.645c0-.233-.047-.466-.138-.684zm-5.957-1.1H41v-2.906l2.905 2.906zM31.52 4.537h5.91V20.86h-3.5a2.08 2.08 0 00-1.485.795l-.926 1.387V4.537zm-3.572 7.143v14.537h-5.892V11.68h5.892zM12.572 8.11h5.91v14.933l-.924-1.387a2.085 2.085 0 00-1.486-.796h-3.5V8.11zM9 20.859H6.096L9 17.955v2.906zM46.43 38.718H3.572V24.43h11.545l3.041 4.562c.331.497.889.795 1.486.795h10.714c.597 0 1.154-.298 1.485-.795l3.042-4.562h11.544v14.286z" fill="#0085FF"/><path d="M17.305 11.681a1.777 1.777 0 11-3.555 0 1.777 1.777 0 013.555 0zM26.777 15.252a1.777 1.777 0 11-3.554 0 1.777 1.777 0 013.554 0zM36.26 8.109a1.777 1.777 0 11-3.555 0 1.777 1.777 0 013.555 0z" fill="#0085FF"/></svg><svg fill="none" viewBox="0 0 25 21" id="telegram" xmlns="http://www.w3.org/2000/svg"><path d="M2.408 9.16C9.793 6.056 19.35 2.269 20.67 1.745 24.13.372 25.192.635 24.662 3.674c-.38 2.183-1.477 9.412-2.351 13.911-.52 2.668-1.683 2.985-3.514 1.83-.88-.555-5.323-3.364-6.287-4.023-.88-.601-2.094-1.324-.572-2.748.542-.508 4.094-3.75 6.86-6.273.363-.331-.092-.876-.51-.61-3.73 2.365-8.901 5.646-9.56 6.074-.994.645-1.949.941-3.663.47-1.295-.355-2.56-.78-3.052-.941C.116 10.74.567 9.935 2.408 9.16z" fill="gray"/></svg></svg>