<svg width="33" height="27" viewBox="0 0 33 27" fill="none" xmlns="http://www.w3.org/2000/svg">
    <path d="M5.58558 15.0961C5.58558 16.3876 4.53862 17.4346 3.24714 17.4346C1.95565 17.4346 0.908691 16.3876 0.908691 15.0961C0.908691 13.8047 1.95565 12.7577 3.24714 12.7577C4.53862 12.7577 5.58558 13.8047 5.58558 15.0961Z" fill="#0085FF"/>
    <path d="M17.0922 7.22709C17.0922 8.51858 16.0453 9.56553 14.7538 9.56553C13.4623 9.56553 12.4153 8.51858 12.4153 7.22709C12.4153 5.9356 13.4623 4.88865 14.7538 4.88865C16.0453 4.88865 17.0922 5.9356 17.0922 7.22709Z" fill="#0085FF"/>
    <path d="M23.8477 23.7818C23.8477 25.0733 22.8008 26.1202 21.5093 26.1202C20.2178 26.1202 19.1708 25.0733 19.1708 23.7818C19.1708 22.4903 20.2178 21.4433 21.5093 21.4433C22.8008 21.4433 23.8477 22.4903 23.8477 23.7818Z" fill="#0085FF"/>
    <path d="M31.791 3.21833C31.791 4.50981 30.7441 5.55677 29.4526 5.55677C28.1611 5.55677 27.1141 4.50981 27.1141 3.21833C27.1141 1.92684 28.1611 0.879883 29.4526 0.879883C30.7441 0.879883 31.791 1.92684 31.791 3.21833Z" fill="#0085FF"/>
    <path d="M13.1577 23.1137C13.1577 24.4052 12.1107 25.4521 10.8192 25.4521C9.52776 25.4521 8.4808 24.4052 8.4808 23.1137C8.4808 21.8222 9.52776 20.7752 10.8192 20.7752C12.1107 20.7752 13.1577 21.8222 13.1577 23.1137Z" fill="#0085FF"/>
    <path d="M3.54408 15.69L11.0048 23.1508L15.0507 8.71182L21.4722 23.1508L29.4526 2.81003M5.58558 15.0961C5.58558 16.3876 4.53862 17.4346 3.24714 17.4346C1.95565 17.4346 0.908691 16.3876 0.908691 15.0961C0.908691 13.8047 1.95565 12.7577 3.24714 12.7577C4.53862 12.7577 5.58558 13.8047 5.58558 15.0961ZM17.0922 7.22709C17.0922 8.51858 16.0453 9.56553 14.7538 9.56553C13.4623 9.56553 12.4153 8.51858 12.4153 7.22709C12.4153 5.9356 13.4623 4.88865 14.7538 4.88865C16.0453 4.88865 17.0922 5.9356 17.0922 7.22709ZM23.8477 23.7818C23.8477 25.0733 22.8008 26.1202 21.5093 26.1202C20.2178 26.1202 19.1708 25.0733 19.1708 23.7818C19.1708 22.4903 20.2178 21.4433 21.5093 21.4433C22.8008 21.4433 23.8477 22.4903 23.8477 23.7818ZM31.791 3.21833C31.791 4.50981 30.7441 5.55677 29.4526 5.55677C28.1611 5.55677 27.1141 4.50981 27.1141 3.21833C27.1141 1.92684 28.1611 0.879883 29.4526 0.879883C30.7441 0.879883 31.791 1.92684 31.791 3.21833ZM13.1577 23.1137C13.1577 24.4052 12.1107 25.4521 10.8192 25.4521C9.52776 25.4521 8.4808 24.4052 8.4808 23.1137C8.4808 21.8222 9.52776 20.7752 10.8192 20.7752C12.1107 20.7752 13.1577 21.8222 13.1577 23.1137Z" stroke="#0085FF" stroke-width="1.61588"/>
</svg>
