<svg width="22" height="17" viewBox="0 0 22 17" fill="none" xmlns="http://www.w3.org/2000/svg">
    <path d="M19.0609 0.380005H2.82101C1.70451 0.380005 0.791016 1.2935 0.791016 2.41V14.5899C0.791016 15.7064 1.70451 16.6199 2.82101 16.6199H19.0609C20.1774 16.6199 21.0909 15.7064 21.0909 14.5899V2.41C21.0909 1.2935 20.1774 0.380005 19.0609 0.380005ZM18.6549 4.69373L12.0169 8.84507C11.3571 9.26121 10.5248 9.26121 9.86507 8.84507L3.227 4.69373C2.97326 4.53134 2.82101 4.25729 2.82101 3.96294C2.82101 3.28289 3.56195 2.87689 4.1405 3.23214L10.941 7.48497L17.7414 3.23214C18.32 2.87689 19.0609 3.28289 19.0609 3.96294C19.0609 4.25729 18.9087 4.53134 18.6549 4.69373Z" fill="#808080"/>
</svg>
