<svg width="51" height="53" viewBox="0 0 51 53" fill="none" xmlns="http://www.w3.org/2000/svg">
    <path d="M49.6817 22.984L47.4146 19.7799C47.1209 19.3681 46.9273 18.8955 46.846 18.409C45.3437 8.15922 36.2466 0.368901 25.6829 0.288798C25.6316 0.288798 25.5807 0.287964 25.5286 0.287964C19.7724 0.287964 14.3591 2.51577 10.2696 6.57055C6.24155 10.5632 4.01749 15.839 4.0083 21.4279C4.0083 23.9949 4.45178 26.4693 5.3254 28.7802C5.69128 29.7477 6.77183 30.2304 7.73477 29.8679C8.07562 29.7386 8.32886 29.5025 8.53412 29.2321C8.91043 28.7365 9.05896 28.0831 8.82282 27.4587C8.10858 25.5712 7.74646 23.5424 7.74646 21.4318C7.7548 16.8476 9.5855 12.5128 12.9018 9.22416C16.2858 5.86948 20.7661 4.02585 25.5292 4.02585C25.5713 4.02585 25.6143 4.02668 25.656 4.02668C34.3909 4.09343 41.9114 10.5091 43.1535 18.9866C43.3342 20.0763 43.7447 21.0747 44.3684 21.9462L46.6363 25.1524C46.857 25.4599 46.7923 25.8942 46.4786 26.1299L43.3754 28.5038C42.9127 28.858 42.6416 29.4062 42.6416 29.9886V38.1557C42.6416 38.5892 42.2728 38.9413 41.8193 38.9413H36.7724C35.7402 38.9413 34.9033 39.7782 34.9033 40.8104V50.7535C34.9033 51.7857 35.7402 52.6226 36.7724 52.6226C37.8045 52.6226 38.6414 51.7857 38.6414 50.7535V42.6794H41.8193C44.3337 42.6794 46.3796 40.6497 46.3796 38.1558V30.9124L48.7352 29.1101C50.6489 27.6741 51.0707 24.9227 49.6818 22.9844L49.6817 22.984Z" fill="#0085FF"/>
    <path d="M16.7866 39.1551C15.7907 39.4271 15.2042 40.4547 15.4754 41.4505C15.5438 41.7025 15.5776 41.9633 15.5776 42.249V50.7528C15.5776 51.785 16.4145 52.6219 17.4466 52.6219C18.4788 52.6219 19.3157 51.785 19.3157 50.7528V42.249C19.3157 41.6349 19.2373 41.0354 19.0821 40.4667C18.8092 39.47 17.7779 38.8797 16.7866 39.1551L16.7866 39.1551Z" fill="#0085FF"/>
    <path d="M25.6865 33.0342C28.8076 33.0342 31.9299 31.8506 34.3063 29.4843C36.6117 27.1901 37.8809 24.1371 37.8809 20.8912C37.8809 17.6442 36.6113 14.5915 34.3063 12.2969C29.5544 7.56498 21.8199 7.56295 17.0661 12.2969C14.7607 14.591 13.4915 17.6441 13.4915 20.8912C13.4915 23.5054 14.3272 25.9869 15.8521 28.0554L12.1991 31.7225L11.7456 31.2707C11.4052 30.9319 10.9646 30.7667 10.5198 30.7442C10.0113 30.7183 9.49645 30.8831 9.10801 31.2707L1.80705 38.5408C0.964731 39.3794 0.5 40.4945 0.5 41.6819C0.5 42.8701 0.964347 43.9852 1.80588 44.8242C2.67282 45.6874 3.81175 46.1192 4.9507 46.1192C6.08879 46.1192 7.22774 45.6874 8.09477 44.8242L15.3966 37.5541C15.7487 37.2037 15.9468 36.7273 15.9468 36.23C15.9468 35.7327 15.7487 35.2563 15.3966 34.9059L14.8475 34.3597L18.5018 30.6905C20.6354 32.2442 23.1573 33.0343 25.6868 33.0343L25.6865 33.0342ZM31.6688 14.945C33.2642 16.5337 34.1428 18.6447 34.1428 20.8909C34.1428 23.1359 33.2637 25.2469 31.6688 26.8356C28.3745 30.1169 23.0177 30.1193 19.7164 26.8464C19.7123 26.8422 19.711 26.836 19.7068 26.8318C19.7027 26.8276 19.6964 26.8264 19.6922 26.8222C18.1048 25.2348 17.2292 23.13 17.2292 20.8909C17.2292 18.6452 18.1082 16.5341 19.7031 14.945C23.002 11.6616 28.3692 11.6616 31.6683 14.945H31.6688ZM4.44361 42.1755C4.26463 41.9965 4.23751 41.7896 4.23751 41.6819C4.23751 41.5751 4.26504 41.3678 4.44361 41.1892L10.4259 35.2325L11.428 36.23L5.45661 42.1759C5.1775 42.453 4.72317 42.453 4.44365 42.1755L4.44361 42.1755Z" fill="#0085FF"/>
</svg>
