<svg width="30" height="51" viewBox="0 0 30 51" fill="none" xmlns="http://www.w3.org/2000/svg">
    <path d="M29.8088 25.2886C29.8088 20.155 27.1994 15.6222 23.2421 12.9529V2.07429C23.2421 1.08816 22.446 0.288574 21.4623 0.288574H8.53673C7.55386 0.288574 6.75691 1.08816 6.75691 2.07429V12.9529C2.80042 15.6231 0.191406 20.1551 0.191406 25.2886C0.191406 30.422 2.80032 34.9542 6.75732 37.6243V48.5029C6.75732 49.489 7.55426 50.2886 8.53714 50.2886H21.4627C22.4464 50.2886 23.2425 49.489 23.2425 48.5029V37.6243C27.1994 34.9545 29.8088 30.4216 29.8088 25.2886ZM10.3172 46.7171V39.3726C11.7911 39.8672 13.3623 40.1462 15.0003 40.1462C16.638 40.1462 18.2092 39.8672 19.6827 39.3726V46.7171H10.3172ZM15.0003 36.5748C8.79801 36.5748 3.75085 31.5114 3.75085 25.2881C3.75085 19.0647 8.7975 14.0013 15.0003 14.0013C21.2035 14.0013 26.2498 19.0647 26.2498 25.2881C26.2498 31.5114 21.204 36.5748 15.0003 36.5748ZM19.6827 3.85949V11.2037C18.2092 10.709 16.6379 10.4304 15.0003 10.4304C13.3624 10.4304 11.7911 10.7094 10.3172 11.2041V3.85948L19.6827 3.85949Z" fill="#0085FF"/>
    <path d="M20.4683 25.8784L16.7799 24.1581V20.3547C16.7799 19.3686 15.9829 18.569 15 18.569C14.0172 18.569 13.2202 19.3686 13.2202 20.3547V25.2969C13.2202 25.9917 13.6219 26.6231 14.2492 26.916L18.9665 29.1166C19.21 29.2298 19.4655 29.284 19.7158 29.2832C20.3868 29.2832 21.0296 28.9014 21.3324 28.2509C21.7455 27.3564 21.3598 26.2942 20.4683 25.8784L20.4683 25.8784Z" fill="#0085FF"/>
</svg>
