<svg width="51" height="57" viewBox="0 0 51 57" fill="none" xmlns="http://www.w3.org/2000/svg">
    <path d="M49.6063 24.6713L47.1734 21.2503C46.8518 20.796 46.6397 20.2803 46.563 19.7582C44.9274 8.73518 35.1498 0.364672 23.8182 0.288898C17.5575 0.256608 11.6759 2.64157 7.24201 7.03658C2.9098 11.3285 0.514883 17.003 0.500073 23.0157C0.480339 30.8524 4.47798 38.0546 11.1943 42.2807C12.2931 42.9722 12.9492 44.1346 12.9492 45.3895L12.9496 54.5347C12.9496 55.6443 13.8493 56.5439 14.9588 56.5439C16.0683 56.5439 16.9679 55.6443 16.9679 54.5347V45.3895C16.9679 42.7449 15.6104 40.3106 13.3353 38.8804C7.79837 35.3957 4.50208 29.4683 4.51873 23.0252C4.53039 18.0898 6.50229 13.4248 10.0703 9.88993C13.7402 6.25507 18.6523 4.3334 23.7912 4.30687C33.1611 4.37056 41.2422 11.2663 42.5889 20.3457C42.7575 21.4898 43.21 22.6069 43.8984 23.5774L46.3322 27.0001C46.5735 27.3395 46.5031 27.8046 46.1703 28.0576L42.827 30.6053C42.3278 30.9851 42.0354 31.5767 42.0354 32.2032V41.0009C42.0354 41.4628 41.6372 41.8387 41.1465 41.8387H35.7263C34.6168 41.8387 33.7171 42.7383 33.7171 43.8478V54.5345C33.7171 55.644 34.6168 56.5436 35.7263 56.5436C36.8358 56.5436 37.7354 55.644 37.7354 54.5345V45.8574H41.1465C43.8521 45.8574 46.0537 43.6787 46.0537 41.0014V33.1983L48.6056 31.2537C50.6726 29.68 51.1121 26.7887 49.607 24.6706L49.6063 24.6713Z" fill="#0085FF"/>
    <path d="M33.0185 20.0823L27.6884 17.5973L29.8263 13.0148C30.4483 11.6806 30.0698 10.1199 28.9051 9.22025C27.7396 8.31882 26.1335 8.34528 24.9998 9.28394L13.0034 19.0423C12.1517 19.7212 11.7202 20.772 11.8477 21.8537C11.9764 22.9359 12.6424 23.8579 13.6322 24.3198L18.9623 26.8048L16.8244 31.3873C16.2024 32.7215 16.5823 34.2823 17.7465 35.1819C18.3147 35.6205 18.9865 35.8394 19.6583 35.8394C20.3646 35.8394 21.0701 35.5981 21.6508 35.1173L33.6484 25.359C34.5 24.6791 34.9315 23.6265 34.8023 22.5443C34.6727 21.4626 34.0067 20.5423 33.0187 20.0823L33.0185 20.0823ZM21.4676 23.5405L16.6331 21.286L24.5128 14.9007L23.6701 16.7066C23.6701 16.7075 23.6692 16.7084 23.6692 16.7098C22.9431 18.2717 23.6212 20.1347 25.1829 20.8626L30.0174 23.1171L22.1386 29.5016L22.9804 27.6956C23.7087 26.1336 23.0306 24.2692 21.4676 23.5406L21.4676 23.5405Z" fill="#0085FF"/>
</svg>
