<svg width="50" height="46" viewBox="0 0 50 46" fill="none" xmlns="http://www.w3.org/2000/svg">
    <path d="M47.6539 32.2993H41.5575V6.23006C41.5575 2.95325 38.8929 0.288574 35.616 0.288574C35.4601 0.288973 6.1172 0.290567 5.93863 0.290567C2.66376 0.290567 0 2.95514 0 6.23001V11.3778C0 12.6717 1.05224 13.7252 2.34651 13.7252H8.44137V39.0168C8.44137 40.7591 9.03328 42.4084 10.1075 43.664C11.2498 44.9981 12.7912 45.7339 14.4478 45.7339H43.9924C43.9928 45.7339 43.9928 45.7335 43.9932 45.7335C43.9936 45.7335 43.9936 45.7339 43.994 45.7339C47.3055 45.7339 49.9996 42.7206 49.9996 39.0164L50 34.6466C50 33.3528 48.9485 32.2993 47.6547 32.2993L47.6539 32.2993ZM35.6163 3.86069C35.8674 3.86069 36.0978 3.93124 36.325 4.00418C37.28 4.3103 37.9859 5.1756 37.9859 6.23069V32.2999L19.2289 32.2995C18.134 32.2995 17.2539 33.0696 16.9959 34.0856C16.9493 34.2702 16.8823 34.4479 16.8823 34.6468V39.017C16.8823 40.7226 15.767 42.1631 14.4469 42.1631C13.8506 42.1631 13.2735 41.8717 12.8191 41.3416C12.2985 40.7329 12.0115 39.9082 12.0115 39.017L12.0127 6.23052C12.0127 5.3875 11.8306 4.58788 11.5101 3.86044L35.6163 3.86069ZM3.57161 6.23037C3.57161 4.92415 4.63344 3.86232 6.07394 3.86232C7.38015 3.86232 8.44198 4.92415 8.44198 6.23037V10.1541H3.57161V6.23037ZM46.4284 39.0169C46.4284 40.7225 45.314 42.163 43.9943 42.163C43.9939 42.163 43.9939 42.1634 43.9935 42.1634C43.9931 42.1634 43.9931 42.163 43.9927 42.163L19.7224 42.1626C20.1745 41.2195 20.4547 40.1592 20.4547 39.0165V35.8704L46.428 35.8708L46.4284 39.0169Z" fill="#0085FF"/>
    <path d="M17.6124 21.7108H32.3867C33.3737 21.7108 34.1724 20.912 34.1724 19.9251C34.1724 18.9382 33.3737 18.1394 32.3867 18.1394H17.6124C16.6262 18.1394 15.8267 18.9382 15.8267 19.9251C15.8267 20.9124 16.6262 21.7108 17.6124 21.7108Z" fill="#0085FF"/>
    <path d="M17.6124 14.3238H32.3867C33.3737 14.3238 34.1724 13.5251 34.1724 12.5381C34.1724 11.5512 33.3737 10.7524 32.3867 10.7524H17.6124C16.6262 10.7524 15.8267 11.5512 15.8267 12.5381C15.8267 13.5251 16.6262 14.3238 17.6124 14.3238Z" fill="#0085FF"/>
    <path d="M17.6124 29.0973H24.9996C25.9857 29.0973 26.7853 28.2985 26.7853 27.3116C26.7853 26.3247 25.9857 25.5259 24.9996 25.5259H17.6124C16.6262 25.5259 15.8267 26.3247 15.8267 27.3116C15.8267 28.2985 16.6262 29.0973 17.6124 29.0973Z" fill="#0085FF"/>
</svg>
