<svg width="53" height="54" viewBox="0 0 53 54" fill="none" xmlns="http://www.w3.org/2000/svg">
    <path d="M52.4456 11.7623C52.9328 11.2751 53.1166 10.5614 52.926 9.89979C52.7346 9.23729 52.1997 8.73152 51.5275 8.57814C50.5054 8.34576 49.5404 7.89325 48.6582 7.30678L50.061 5.90401C50.8004 5.16461 50.8004 3.9668 50.061 3.22739C49.3216 2.48799 48.1238 2.48799 47.3844 3.22739L45.9816 4.63017C45.3951 3.74796 44.9431 2.78251 44.7102 1.76091C44.5569 1.08911 44.0511 0.5538 43.3886 0.362351C42.7278 0.170955 42.0142 0.355168 41.5261 0.842749C39.141 3.22787 37.4416 6.14569 36.4623 9.41851C33.8808 7.89621 30.9536 6.90662 27.8185 6.62269L27.8194 3.32835C27.8194 2.28305 26.9718 1.43549 25.9265 1.43549C24.8812 1.43549 24.0336 2.28305 24.0336 3.32835V6.62313C14.0547 7.52731 6.09145 15.4908 5.18721 25.4696H1.89286C0.84756 25.4696 0 26.3171 0 27.3624C0 28.4077 0.84756 29.2553 1.89286 29.2553H5.18677C6.09096 39.2343 14.0545 47.1975 24.0332 48.1017V51.3956C24.0332 52.441 24.8808 53.2885 25.9261 53.2885C26.9714 53.2885 27.8189 52.441 27.8189 51.3956V48.1017C37.7979 47.1976 45.7611 39.234 46.6654 29.2553H49.9606C51.0059 29.2553 51.8535 28.4077 51.8535 27.3624C51.8535 26.3171 51.0059 25.4696 49.9606 25.4696H46.6658C46.3819 22.3346 45.3924 19.4077 43.87 16.8258C47.1428 15.8468 50.0606 14.147 52.4458 11.7624L52.4456 11.7623ZM44.4804 8.78949C44.4837 8.79287 44.4846 8.79752 44.488 8.8009C44.4913 8.80428 44.496 8.80513 44.4994 8.80851C45.3689 9.67635 46.3572 10.425 47.4324 11.0199C45.1191 12.5938 42.3927 13.5735 39.3933 13.8951C39.7148 10.8961 40.6946 8.16958 42.2685 5.85596C42.8638 6.93168 43.6125 7.91994 44.4803 8.78947L44.4804 8.78949ZM25.926 38.5832C19.7391 38.5832 14.7061 33.5498 14.7061 27.3634C14.7061 21.1756 19.7395 16.1425 25.926 16.1425C28.3377 16.1425 30.5681 16.9144 32.3993 18.2136L29.8579 20.755C28.7019 20.0646 27.3677 19.6421 25.926 19.6421C21.6687 19.6421 18.2049 23.1063 18.2049 27.3631C18.2049 31.6204 21.6691 35.0842 25.926 35.0842C30.1832 35.0842 33.647 31.62 33.647 27.3631C33.647 25.922 33.2249 24.5872 32.5341 23.4312L35.0755 20.8898C36.3748 22.721 37.1466 24.9514 37.1466 27.3631C37.1471 33.5504 32.1137 38.584 25.9257 38.584L25.926 38.5832ZM29.8613 27.3634C29.8613 29.5333 28.096 31.2987 25.926 31.2987C23.7559 31.2987 21.9906 29.5335 21.9906 27.3634C21.9906 25.1933 23.7559 23.428 25.926 23.428C26.3058 23.428 26.6653 23.499 27.0131 23.6L24.5942 26.0189C23.8548 26.7583 23.8548 27.9561 24.5942 28.6955C24.9639 29.0652 25.4481 29.2498 25.9323 29.2498C26.4165 29.2498 26.9007 29.0652 27.2704 28.6955L29.6893 26.2766C29.7903 26.6239 29.8612 26.9839 29.8612 27.3633L29.8613 27.3634ZM35.5673 14.1501L35.4904 15.1227L35.0992 15.514C33.0314 13.9097 30.5399 12.8347 27.8185 12.49V10.4261C30.7123 10.7476 33.3856 11.7976 35.6595 13.3857C35.6312 13.6414 35.5881 13.8915 35.5674 14.1501L35.5673 14.1501ZM24.0328 12.49C17.2717 13.3469 11.9087 18.7103 11.052 25.4718L8.98719 25.4714C9.86349 17.5809 16.142 11.3019 24.0328 10.4258V12.49ZM11.052 29.2564C11.9089 36.0175 17.2715 41.3805 24.0328 42.2372V44.302C16.1423 43.4257 9.86332 37.1472 8.98719 29.2564H11.052ZM27.8185 42.2372C34.5796 41.3803 39.9426 36.0178 40.8003 29.2564H42.8643C41.988 37.1469 35.7095 43.4259 27.8187 44.302L27.8185 42.2372ZM40.7992 25.4707C40.4544 22.7493 39.3796 20.2578 37.7753 18.19L38.1665 17.7987L39.1392 17.7219C39.3977 17.7011 39.6479 17.6585 39.9035 17.6297C41.4918 19.9037 42.5417 22.5769 42.8632 25.4707L40.7992 25.4707Z" fill="#0085FF"/>
</svg>
