<svg width="50" height="51" viewBox="0 0 50 51" fill="none" xmlns="http://www.w3.org/2000/svg">
    <path d="M48.8297 20.4901L44.8589 19.0325C44.4926 17.8718 44.0271 16.7473 43.4655 15.6712L45.2424 11.8311C45.5581 11.1519 45.415 10.348 44.8848 9.81859L40.4696 5.40332C39.941 4.8716 39.1303 4.73009 38.457 5.04578L34.6174 6.82352C33.5396 6.26111 32.4147 5.79557 31.2568 5.43006L29.7971 1.45846C29.5392 0.756142 28.8696 0.288574 28.1214 0.288574H21.8782C21.13 0.288574 20.4603 0.756121 20.2025 1.45887L18.7428 5.43047C17.5849 5.79598 16.4601 6.26154 15.3822 6.82393L11.5426 5.04578C10.8693 4.73009 10.0586 4.8712 9.53002 5.40332L5.11475 9.81859C4.58462 10.3479 4.44152 11.1518 4.75721 11.8311L6.53413 15.6712C5.97251 16.747 5.507 17.8718 5.14068 19.0325L1.16989 20.4901C0.467567 20.7492 0 21.4181 0 22.1671V28.4103C0 29.1592 0.467548 29.8281 1.1703 30.0872L5.14108 31.5448C5.50739 32.7056 5.97294 33.83 6.53454 34.9062L4.75762 38.7462C4.44192 39.4254 4.58503 40.2294 5.11515 40.7588L9.53043 45.174C10.059 45.705 10.8697 45.8465 11.543 45.5316L15.383 43.7538C16.4608 44.3162 17.5857 44.7818 18.7436 45.1473L20.2033 49.1189C20.4608 49.8208 21.1304 50.2884 21.8786 50.2884H28.1218C28.87 50.2884 29.5397 49.8208 29.7975 49.1181L31.2572 45.1465C32.4151 44.781 33.5399 44.3154 34.6178 43.753L38.4579 45.5308C39.1311 45.8456 39.9418 45.7041 40.4704 45.1732L44.8857 40.7579C45.4158 40.2286 45.5589 39.4247 45.2432 38.7454L43.4663 34.9053C44.0279 33.8295 44.4934 32.7047 44.8597 31.544L48.8305 30.0864C49.5324 29.8277 50 29.1589 50 28.4099V22.1667C50 21.4181 49.5325 20.7492 48.8297 20.4901ZM46.4286 27.163L42.7803 28.5031C42.2346 28.7036 41.8192 29.1572 41.6693 29.7197C41.2751 31.2013 40.6876 32.6207 39.9219 33.9388C39.6289 34.4426 39.5994 35.0577 39.845 35.5858L41.4772 39.1146L38.8265 41.7668L35.297 40.1329C34.7684 39.8898 34.1566 39.9157 33.6492 40.2099C32.329 40.9772 30.9113 41.5659 29.4325 41.9573C28.8709 42.1072 28.4157 42.5213 28.2152 43.0682L26.8747 46.717H23.1255L21.7846 43.0678C21.5841 42.5209 21.1289 42.1068 20.5673 41.9569C19.0885 41.5655 17.6707 40.9768 16.3506 40.2095C15.8448 39.9157 15.2277 39.8886 14.7028 40.1325L11.1733 41.7664L8.52258 39.1142L10.1548 35.5854C10.4007 35.0569 10.3712 34.4423 10.0779 33.9384C9.31218 32.6202 8.72462 31.2005 8.33044 29.7193C8.18057 29.1568 7.76563 28.7036 7.21953 28.5027L3.5716 27.163V23.4139L7.21994 22.0738C7.76562 21.8733 8.18095 21.4197 8.33085 20.8573C8.72506 19.3757 9.31259 17.9563 10.0783 16.6381C10.3713 16.1343 10.4008 15.5193 10.1552 14.9911L8.52258 11.4624L11.1733 8.81013L14.7028 10.444C15.233 10.6899 15.8448 10.662 16.3506 10.3671C17.6708 9.59978 19.0885 9.01106 20.5673 8.61963C21.1289 8.46975 21.5841 8.05563 21.7846 7.50872L23.1255 3.85997H26.8747L28.2156 7.50913C28.4161 8.056 28.8713 8.47014 29.4329 8.62004C30.9117 9.01145 32.3295 9.60018 33.6496 10.3675C34.157 10.662 34.7725 10.6891 35.2974 10.4444L38.8269 8.81054L41.4776 11.4628L39.8454 14.9915C39.5995 15.52 39.629 16.1347 39.9223 16.6385C40.688 17.9567 41.2756 19.3765 41.6698 20.8577C41.8196 21.4201 42.2346 21.8733 42.7807 22.0742L46.4286 23.4139V27.163Z" fill="#0085FF"/>
    <path d="M25.0004 11.0024C17.1235 11.0024 10.7148 17.4111 10.7148 25.288C10.7148 33.165 17.1235 39.5736 25.0004 39.5736C32.8774 39.5736 39.286 33.165 39.286 25.288C39.286 17.4111 32.8774 11.0024 25.0004 11.0024ZM34.5985 27.0737H35.5532C34.7974 31.5507 31.2631 35.0851 26.7861 35.8408V34.8862C26.7861 33.9001 25.9873 33.1005 25.0004 33.1005C24.0135 33.1005 23.2147 33.9001 23.2147 34.8862V35.8408C18.7377 35.0851 15.2033 31.5507 14.4476 27.0737H15.4023C16.3892 27.0737 17.188 26.2742 17.188 25.288C17.188 24.3019 16.3892 23.5023 15.4023 23.5023H14.4476C15.2033 19.0253 18.7377 15.491 23.2147 14.7353V15.6899C23.2147 16.676 24.0135 17.4756 25.0004 17.4756C25.9873 17.4756 26.7861 16.676 26.7861 15.6899V14.7353C31.2631 15.491 34.7975 19.0253 35.5532 23.5023H34.5985C33.6116 23.5023 32.8128 24.3019 32.8128 25.288C32.8128 26.2742 33.6116 27.0737 34.5985 27.0737Z" fill="#0085FF"/>
    <path d="M29.888 25.5922L26.7858 24.1493V20.9712C26.7858 19.9851 25.987 19.1855 25.0001 19.1855C24.0131 19.1855 23.2144 19.9851 23.2144 20.9712V25.288C23.2144 25.9828 23.6173 26.6142 24.2467 26.9071L28.3814 28.8308C28.6257 28.944 28.882 28.9982 29.1331 28.9974C29.8063 28.9974 30.4513 28.6155 30.753 27.965C31.1699 27.0702 30.7825 26.0083 29.888 25.5922L29.888 25.5922Z" fill="#0085FF"/>
</svg>
