<svg width="51" height="51" viewBox="0 0 51 51" fill="none" xmlns="http://www.w3.org/2000/svg">
    <path d="M49.3297 20.4895L45.3589 19.0319C44.9926 17.8712 44.5271 16.7467 43.9655 15.6706L45.7424 11.8305C46.0581 11.1513 45.915 10.3474 45.3848 9.81798L40.9696 5.40271C40.441 4.87099 39.6303 4.72948 38.957 5.04517L35.1174 6.82291C34.0396 6.2605 32.9147 5.79496 31.7568 5.42945L30.2971 1.45785C30.0392 0.755532 29.3696 0.287964 28.6214 0.287964H22.3782C21.63 0.287964 20.9603 0.755511 20.7025 1.45826L19.2428 5.42986C18.0849 5.79537 16.9601 6.26093 15.8822 6.82332L12.0426 5.04517C11.3693 4.72948 10.5602 4.87059 10.03 5.40271L5.61475 9.81798C5.08462 10.3473 4.94152 11.1512 5.25721 11.8305L7.03413 15.6706C6.47251 16.7464 6.007 17.8712 5.64068 19.0319L1.66989 20.4895C0.967567 20.7486 0.5 21.4175 0.5 22.1665V28.4097C0.5 29.1586 0.967548 29.8275 1.6703 30.0866L5.64108 31.5442C6.00739 32.7049 6.47294 33.8294 7.03454 34.9055L5.25762 38.7456C4.94192 39.4248 5.08503 40.2288 5.61515 40.7581L10.0304 45.1734C10.5606 45.7043 11.3697 45.8458 12.043 45.531L15.883 43.7532C16.9608 44.3156 18.0857 44.7812 19.2436 45.1467L20.7033 49.1183C20.9608 49.8202 21.6304 50.2878 22.3786 50.2878H28.6218C29.37 50.2878 30.0397 49.8202 30.2975 49.1175L31.7572 45.1459C32.9151 44.7803 34.0399 44.3148 35.1178 43.7524L38.9579 45.5301C39.6311 45.845 40.4418 45.7035 40.9704 45.1726L45.3857 40.7573C45.9158 40.228 46.0589 39.4241 45.7432 38.7448L43.9663 34.9047C44.5279 33.8289 44.9934 32.7041 45.3597 31.5434L49.3305 30.0858C50.0324 29.8271 50.5 29.1583 50.5 28.4093V22.166C50.5 21.4175 50.0325 20.7486 49.3297 20.4895ZM46.9286 27.1624L43.2803 28.5025C42.7346 28.703 42.3192 29.1566 42.1693 29.719C41.7751 31.2007 41.1876 32.62 40.4219 33.9382C40.1289 34.442 40.0994 35.0571 40.345 35.5852L41.9772 39.114L39.3265 41.7662L35.797 40.1323C35.2684 39.8892 34.6566 39.9151 34.1492 40.2093C32.829 40.9766 31.4113 41.5653 29.9325 41.9567C29.3709 42.1066 28.9157 42.5207 28.7152 43.0676L27.3747 46.7164H23.6255L22.2846 43.0672C22.0841 42.5203 21.6289 42.1062 21.0673 41.9563C19.5885 41.5649 18.1707 40.9761 16.8506 40.2089C16.3432 39.9151 15.7277 39.888 15.2028 40.1319L11.6733 41.7658L9.02258 39.1136L10.6548 35.5848C10.9007 35.0563 10.8712 34.4417 10.5779 33.9378C9.81218 32.6196 9.22462 31.1999 8.83044 29.7186C8.68057 29.1562 8.26563 28.703 7.71953 28.5021L4.0716 27.1624V23.4133L7.71994 22.0732C8.26562 21.8727 8.68095 21.4191 8.83085 20.8567C9.22506 19.3751 9.81259 17.9557 10.5783 16.6375C10.8713 16.1337 10.9008 15.5187 10.6552 14.9905L9.02258 11.4617L11.6733 8.80952L15.2028 10.4434C15.733 10.6893 16.3448 10.6614 16.8506 10.3665C18.1708 9.59917 19.5885 9.01045 21.0673 8.61902C21.6289 8.46914 22.0841 8.05502 22.2846 7.50811L23.6255 3.85936H27.3747L28.7156 7.50852C28.9161 8.05539 29.3713 8.46953 29.9329 8.61943C31.4117 9.01084 32.8295 9.59957 34.1496 10.3669C34.6554 10.6614 35.2725 10.6885 35.7974 10.4438L39.3269 8.80993L41.9776 11.4622L40.3454 14.9909C40.0995 15.5194 40.129 16.1341 40.4223 16.6379C41.188 17.9561 41.7756 19.3759 42.1698 20.8571C42.3196 21.4195 42.7346 21.8727 43.2807 22.0736L46.9286 23.4133V27.1624Z" fill="#0085FF"/>
    <path d="M33.7606 27.3405L31.8143 26.0813C32.9575 24.6755 33.6717 22.9074 33.6717 20.9582C33.6717 16.4525 30.0063 12.787 25.5002 12.787C20.9941 12.787 17.3286 16.4525 17.3286 20.9578C17.3286 22.907 18.0429 24.6751 19.186 26.0809L17.2397 27.3401C15.1941 28.6626 13.9717 30.9087 13.9717 33.3469V36.0012C13.9717 36.9873 14.7705 37.7869 15.7574 37.7869H35.2429C36.2299 37.7869 37.0286 36.9873 37.0286 36.0012V33.3469C37.0286 30.909 35.8062 28.663 33.7606 27.3405ZM17.5434 33.3469C17.5434 32.126 18.1556 31.0016 19.1792 30.3395L22.171 28.4035C23.1902 28.8614 24.3122 29.1293 25.5005 29.1293C26.6887 29.1293 27.8108 28.8614 28.8299 28.4035L31.8217 30.3395C32.8453 31.0011 33.4576 32.126 33.4576 33.3469V34.2154H17.5434V33.3469ZM20.9003 20.9582C20.9003 18.422 22.963 16.3589 25.5005 16.3589C28.0379 16.3589 30.1006 18.422 30.1006 20.9582C30.1006 23.4948 28.0379 25.5584 25.5005 25.5584C22.963 25.5584 20.9003 23.4948 20.9003 20.9582Z" fill="#0085FF"/>
</svg>
