<svg width="50" height="47" viewBox="0 0 50 47" fill="none" xmlns="http://www.w3.org/2000/svg">
    <path d="M42.4157 0.288594H7.58927C3.40397 0.288594 0 3.69338 0 7.87786V31.0686C0 35.1204 3.19479 38.4407 7.19703 38.6431V43.769C7.19703 44.907 7.83359 45.9226 8.85723 46.4197C9.27057 46.6194 9.70983 46.7179 10.1475 46.7179C10.7944 46.7179 11.4346 46.5014 11.9699 46.0805L16.9834 42.1169C19.8083 39.8831 23.3486 38.6527 26.9495 38.6527H42.4107C46.596 38.6527 50 35.2487 50 31.0642V7.87346C50 3.69102 46.5976 0.288574 42.4159 0.288574L42.4157 0.288594ZM46.4284 31.064C46.4284 33.2786 44.6251 35.0811 42.4105 35.0811H26.9493C22.5476 35.0811 18.2213 36.5841 14.7687 39.3141L10.7684 42.4774V36.8664C10.7684 35.8802 9.96966 35.0807 8.98274 35.0807L7.58407 35.0811C5.37101 35.0811 3.57142 33.2814 3.57142 31.0684V7.87765C3.57142 5.66225 5.37468 3.8598 7.58927 3.8598H42.4157C44.6288 3.8598 46.4284 5.66031 46.4284 7.87326V31.064Z" fill="#0085FF"/>
    <path d="M23.8902 7.02631C22.9033 7.02631 22.1045 7.82589 22.1045 8.81202V9.39716C16.6708 10.2585 12.4995 14.9619 12.4995 20.6339C12.4995 26.9154 17.6091 32.0257 23.8903 32.0257C29.5627 32.0257 34.2668 27.8535 35.1291 22.4195H35.7142C36.7011 22.4195 37.4999 21.6199 37.4999 20.6338C37.4999 13.1298 31.3946 7.02563 23.8908 7.02563L23.8902 7.02631ZM16.0709 20.6344C16.0709 16.939 18.6546 13.8519 22.1045 13.0392V20.6344C22.1045 21.6206 22.9033 22.4202 23.8902 22.4202H31.4862C30.6735 25.8712 27.5859 28.4549 23.8902 28.4549C19.5798 28.4549 16.0709 24.9473 16.0709 20.6344ZM25.6759 18.8487V10.7564C29.7826 11.4974 33.028 14.7427 33.769 18.8487H25.6759Z" fill="#0085FF"/>
</svg>
