<svg width="50" height="44" viewBox="0 0 50 44" fill="none" xmlns="http://www.w3.org/2000/svg">
    <path d="M47.4549 31.8045L46.5745 31.2349C47.2421 30.2373 47.6347 29.0399 47.6347 27.752C47.6347 24.2879 44.8151 21.4691 41.3502 21.4691C37.8852 21.4691 35.0672 24.2879 35.0672 27.752C35.0672 29.0395 35.459 30.2361 36.1259 31.2337L35.243 31.8049C34.6842 32.1668 34.2385 32.6403 33.8511 33.1546L30.1417 31.5901C30.2677 31.1353 30.3566 30.6658 30.3566 30.1715C30.3566 27.8466 28.8595 25.8831 26.7852 25.1438V22.5242H31.8633C32.8502 22.5242 33.649 21.7247 33.649 20.7385V15.2986C33.649 13.4013 32.6987 11.6539 31.1047 10.6236L30.2238 10.0536C30.8907 9.05595 31.2825 7.85937 31.2825 6.57153C31.2825 3.10741 28.4645 0.288574 24.9995 0.288574C21.5346 0.288574 18.7166 3.10741 18.7166 6.57153C18.7166 7.85896 19.1084 9.05598 19.7752 10.0536L18.8944 10.6236C17.3004 11.6532 16.3501 13.4014 16.3501 15.2986V20.7385C16.3501 21.7247 17.1489 22.5242 18.1358 22.5242L23.2139 22.5238V25.1434C21.1396 25.8828 19.6425 27.8466 19.6425 30.1712C19.6425 30.6654 19.7314 31.1349 19.8574 31.5897L16.1484 33.1542C15.761 32.6396 15.3154 32.1665 14.7565 31.8042H14.7549L13.8732 31.2346C14.5405 30.2369 14.9327 29.0399 14.9327 27.7521C14.9327 24.288 12.1147 21.4691 8.64976 21.4691C5.18481 21.4691 2.36516 24.288 2.36516 27.7521C2.36516 29.0399 2.75738 30.237 3.42505 31.2346L2.54496 31.8038C0.950189 32.8334 0 34.5808 0 36.4781V41.9188C0 42.9049 0.798773 43.7045 1.78569 43.7045H15.512C16.4989 43.7045 17.2977 42.9049 17.2977 41.9188V36.5463L21.9643 34.5772C22.8281 35.1747 23.8724 35.5286 25 35.5286C26.1276 35.5286 27.1719 35.1747 28.0357 34.5776L32.7023 36.5458V41.9188C32.7023 42.9049 33.5011 43.7045 34.488 43.7045H48.2143C49.2012 43.7045 50 42.9049 50 41.9188V36.4781C50 34.5816 49.0498 32.8346 47.4558 31.8046L47.4549 31.8045ZM22.288 6.57125C22.288 5.07576 23.5053 3.85966 24.9996 3.85966C26.4939 3.85966 27.7112 5.07617 27.7112 6.57125C27.7112 8.06673 26.4939 9.28365 24.9996 9.28365C23.5053 9.28365 22.288 8.06673 22.288 6.57125ZM19.9216 18.9527V15.2985C19.9216 14.6185 20.2616 13.9914 20.8336 13.6228L22.7102 12.4087C23.4213 12.6889 24.1902 12.8555 24.9997 12.8555C25.8093 12.8555 26.5782 12.6889 27.2893 12.4087L29.1659 13.6228C29.7379 13.9915 30.0779 14.6184 30.0779 15.2985V18.9527H19.9216ZM38.6387 27.7523C38.6387 26.2568 39.856 25.0407 41.3502 25.0407C42.8465 25.0407 44.0635 26.2573 44.0635 27.7523C44.0635 29.2478 42.8461 30.4639 41.3502 30.4639C39.8559 30.4639 38.6387 29.2474 38.6387 27.7523ZM36.2738 36.4783C36.2738 35.7983 36.6138 35.1721 37.1842 34.8026L39.0608 33.5886C39.7719 33.8688 40.5408 34.0354 41.3503 34.0354C42.1599 34.0354 42.9284 33.8688 43.6399 33.5886L45.5165 34.8026V34.8034C46.0885 35.1721 46.4285 35.7983 46.4285 36.4783V40.1333H36.2739L36.2738 36.4783ZM5.93654 27.7523C5.93654 26.2568 7.15386 25.0407 8.64976 25.0407C10.1441 25.0407 11.3613 26.2573 11.3613 27.7523C11.3613 29.2474 10.144 30.4639 8.64976 30.4639C7.15346 30.4639 5.93654 29.2474 5.93654 27.7523ZM8.64976 34.0353C9.4593 34.0353 10.2282 33.8687 10.9393 33.5885L12.8159 34.8025C13.3863 35.172 13.7263 35.799 13.7263 36.4782V40.1333H3.57177V36.4782C3.57177 35.7982 3.91177 35.172 4.48375 34.8025L6.36035 33.5885C7.07184 33.8687 7.84032 34.0353 8.6499 34.0353H8.64976ZM23.2138 30.1718C23.2138 29.1905 24.0098 28.3928 24.9907 28.3877C24.9939 28.3877 24.9963 28.3893 24.9995 28.3893C25.0027 28.3893 25.0051 28.3877 25.0083 28.3877C25.9892 28.3929 26.7852 29.1905 26.7852 30.1718C26.7852 31.1563 25.9848 31.9575 24.9995 31.9575C24.0142 31.9575 23.2138 31.1563 23.2138 30.1718H23.2138Z" fill="#0085FF"/>
</svg>
