<svg width="50" height="39" viewBox="0 0 50 39" fill="none" xmlns="http://www.w3.org/2000/svg">
    <path d="M48.2142 0.606659H13.1846C12.1985 0.606659 11.3989 1.40624 11.3989 2.39237C11.3989 3.37851 12.1985 4.17809 13.1846 4.17809H46.4285V23.9485C46.4285 24.9346 47.2281 25.7342 48.2142 25.7342C49.2004 25.7342 49.9999 24.9346 49.9999 23.9485V2.39237C49.9999 1.40584 49.2004 0.606659 48.2142 0.606659Z" fill="#0085FF"/>
    <path d="M42.514 6.88389H7.48542C6.49929 6.88389 5.69971 7.68347 5.69971 8.6696C5.69971 9.65573 6.49929 10.4553 7.48542 10.4553H40.7293V30.2257C40.7293 31.2119 41.5289 32.0114 42.515 32.0114C43.5012 32.0114 44.3007 31.2119 44.3007 30.2257L44.3003 8.6696C44.3003 7.68347 43.5008 6.88389 42.5146 6.88389H42.514Z" fill="#0085FF"/>
    <path d="M38.601 14.9462C38.601 13.96 37.8014 13.1604 36.8153 13.1604H1.78571C0.799582 13.1604 0 13.96 0 14.9462V36.5023C0 37.4884 0.799582 38.288 1.78571 38.288H36.8153C37.8014 38.288 38.601 37.4884 38.601 36.5023V14.9462ZM35.0296 34.7166H3.57143V16.7319H35.0296V34.7166Z" fill="#0085FF"/>
    <path d="M19.3003 19.4747C15.8544 19.4747 13.0503 22.2788 13.0503 25.7247C13.0503 29.1706 15.8544 31.9747 19.3003 31.9747C22.7462 31.9747 25.5503 29.1706 25.5503 25.7247C25.5503 22.2788 22.7462 19.4747 19.3003 19.4747ZM19.3003 28.4033C17.823 28.4033 16.6217 27.202 16.6217 25.7247C16.6217 24.2475 17.823 23.0462 19.3003 23.0462C20.7775 23.0462 21.9789 24.2475 21.9789 25.7247C21.9789 27.2016 20.7775 28.4033 19.3003 28.4033Z" fill="#0085FF"/>
    <path d="M8.55813 23.939H8.53979C7.55366 23.939 6.76367 24.7386 6.76367 25.7247C6.76367 26.7109 7.57203 27.5104 8.55816 27.5104C9.54429 27.5104 10.3439 26.7109 10.3439 25.7247C10.3439 24.7386 9.54429 23.939 8.55816 23.939H8.55813Z" fill="#0085FF"/>
    <path d="M30.1143 23.939H30.0959C29.1098 23.939 28.3198 24.7386 28.3198 25.7247C28.3198 26.7109 29.1282 27.5104 30.1143 27.5104C31.1004 27.5104 31.9 26.7109 31.9 25.7247C31.9 24.7386 31.1004 23.939 30.1143 23.939H30.1143Z" fill="#0085FF"/>
</svg>
