<svg width="50" height="49" viewBox="0 0 50 49" fill="none" xmlns="http://www.w3.org/2000/svg">
    <path d="M36.4713 10.201C36.2673 10.201 36.0688 10.2229 35.8671 10.2317C35.2672 9.27065 34.5991 8.35708 33.7963 7.55433C30.8826 4.66096 27.0274 3.06769 22.9392 3.06769C20.3479 3.06769 17.8623 3.7198 15.6269 4.93749L15.6381 2.70494C15.6461 1.0882 13.6954 0.269121 12.547 1.40667C12.205 1.74548 12.0117 2.20586 12.0097 2.68698L11.981 8.67147C11.9762 9.67354 12.7845 10.4898 13.7866 10.4946L19.7711 10.5229C20.2522 10.5253 20.7146 10.3364 21.0566 9.99759C22.0439 9.01943 21.5859 7.44259 20.4125 7.01248C21.2368 6.83113 22.0762 6.70557 22.9392 6.70557C26.0598 6.70557 29.005 7.92404 31.2288 10.1319C31.4974 10.4005 31.7278 10.7023 31.9674 10.9961C26.7186 12.8754 22.9428 17.9248 22.9428 23.8603C22.9428 31.3915 29.0111 37.5195 36.4714 37.5195C43.9315 37.5187 50 31.3911 50 23.8603C50 16.3292 43.9317 10.2012 36.4714 10.2012L36.4713 10.201ZM26.5805 23.8602C26.5805 18.3345 31.0173 13.839 36.4713 13.839C41.9254 13.839 46.3621 18.3345 46.3621 23.8602C46.3621 29.3859 41.9254 33.8813 36.4713 33.8813C31.0173 33.8813 26.5805 29.3859 26.5805 23.8602Z" fill="#0085FF"/>
    <path d="M36.471 19.4959C37.1327 19.4959 37.6716 20.0659 37.6716 20.7678C37.6716 21.7731 38.4859 22.5866 39.4904 22.5866C40.4948 22.5866 41.3091 21.7731 41.3091 20.7678C41.3091 18.6864 40.0205 16.9141 38.2144 16.2015C38.0375 15.3816 37.3431 14.7554 36.471 14.7554C35.5988 14.7554 34.9041 15.3816 34.7275 16.2015C32.9215 16.9142 31.6328 18.6864 31.6328 20.7678C31.6328 23.4767 33.8032 25.6789 36.471 25.6789C37.1327 25.6789 37.6716 26.2509 37.6716 26.9524C37.6716 27.6539 37.1327 28.2244 36.471 28.2244C35.8093 28.2244 35.2704 27.6544 35.2704 26.9524C35.2704 25.9471 34.456 25.1336 33.4516 25.1336C32.4471 25.1336 31.6328 25.9472 31.6328 26.9524C31.6328 29.0338 32.9215 30.8061 34.7275 31.5187C34.9045 32.3387 35.5988 32.9649 36.471 32.9649C37.3431 32.9649 38.0378 32.3387 38.2144 31.5187C40.0209 30.806 41.3091 29.0338 41.3091 26.9524C41.3091 24.2435 39.1387 22.0413 36.471 22.0413C35.8093 22.0413 35.2704 21.4693 35.2704 20.7678C35.2704 20.0663 35.8093 19.4959 36.471 19.4959Z" fill="#0085FF"/>
    <path d="M30.3112 38.7153L24.4545 37.4848C23.9834 37.3859 23.4927 37.478 23.0897 37.7411C21.9012 38.5167 22.0586 40.2124 23.1846 40.8402C23.1025 40.8417 23.022 40.8533 22.9395 40.8533C19.8025 40.8533 16.8585 39.6368 14.6507 37.4289C13.942 36.7198 13.3453 35.9405 12.8499 35.1054H16.9618C17.9663 35.1054 18.7806 34.2919 18.7806 33.2867V29.0273C18.7806 26.9865 17.7574 25.1071 16.0443 23.997H16.0435L14.933 23.2791C15.707 22.1774 16.1702 20.8429 16.1702 19.3967C16.1702 15.6579 13.1285 12.6154 9.3897 12.6154C5.65092 12.6154 2.60918 15.6579 2.60918 19.3967C2.60918 20.8429 3.07236 22.1774 3.84643 23.2791L2.73592 23.997C1.02316 25.1071 0 26.9865 0 29.0273V33.2867C0 34.2919 0.814337 35.1054 1.81878 35.1054H8.80021C9.56273 36.9227 10.6485 38.5713 12.0783 40.0006C14.9733 42.8957 18.8313 44.4909 22.9395 44.4909C24.4693 44.4909 25.9541 44.2509 27.3862 43.816L26.9322 45.9737C26.5994 47.5557 28.3457 48.7503 29.6997 47.8666C30.1027 47.6036 30.3845 47.1914 30.4837 46.7203L31.7142 40.8637C31.9199 39.8835 31.2921 38.9213 30.3112 38.7152V38.7153ZM3.6377 29.0274C3.6377 28.2262 4.03988 27.4876 4.71229 27.0524L6.84637 25.6725C7.6332 25.9926 8.48943 26.1771 9.38984 26.1771C10.2902 26.1771 11.1465 25.9926 11.9333 25.6725L14.0674 27.0524C14.7406 27.4877 15.1428 28.2267 15.1428 29.0274V31.468L3.6377 31.4676V29.0274ZM6.24688 19.3969C6.24688 17.6634 7.65709 16.2531 9.38984 16.2531C11.1226 16.2531 12.5328 17.6633 12.5328 19.3969C12.5328 21.1288 11.1226 22.5391 9.38984 22.5391C7.65709 22.5391 6.24688 21.1284 6.24688 19.3969Z" fill="#0085FF"/>
</svg>
