<svg width="50" height="50" viewBox="0 0 50 50" fill="none" xmlns="http://www.w3.org/2000/svg">
    <path d="M30.7377 10.0688L30.0195 9.604C30.6086 8.68006 30.9617 7.59075 30.9617 6.41566C30.9617 3.12844 28.2876 0.453461 25.0004 0.453461C21.7131 0.453461 19.039 3.12844 19.039 6.41566C19.039 7.59075 19.3921 8.68003 19.9813 9.604L19.263 10.0688C17.7475 11.0489 16.8423 12.7126 16.8423 14.5175V19.5677C16.8423 20.5546 17.6419 21.3534 18.628 21.3534H31.3718C32.3579 21.3534 33.1575 20.5546 33.1575 19.5677V14.5175C33.1575 12.7126 32.2527 11.049 30.7372 10.0688H30.7377ZM22.6104 6.41563C22.6104 5.09747 23.6831 4.02483 25.0004 4.02483C26.3178 4.02483 27.3904 5.09747 27.3904 6.41563C27.3904 7.73215 26.3178 8.80479 25.0004 8.80479C23.6831 8.80439 22.6104 7.73215 22.6104 6.41563ZM22.8954 11.9732C23.5523 12.2232 24.2571 12.3762 25.0004 12.3762C25.7438 12.3762 26.4485 12.2232 27.1054 11.9736L28.7978 13.0685H28.7986C29.2921 13.3878 29.5867 13.9299 29.5867 14.5178V17.7823H20.4138V14.5178C20.4138 13.9303 20.7083 13.3878 21.203 13.0685L22.8954 11.9732Z" fill="#0085FF"/>
    <path d="M13.895 38.3073L13.1764 37.8422C13.7659 36.9174 14.1194 35.8277 14.1194 34.6522C14.1194 31.365 11.4453 28.6916 8.15805 28.6916C4.87083 28.6916 2.19667 31.365 2.19667 34.6522C2.19667 35.8277 2.54982 36.9174 3.13934 37.8417L2.41988 38.3073C0.904075 39.2871 0 40.9492 0 42.754V47.8058C0 48.7927 0.799575 49.5915 1.7857 49.5915H14.5285C15.5146 49.5915 16.3141 48.7927 16.3141 47.8058V42.754C16.3141 40.9491 15.4101 39.287 13.8947 38.3073L13.895 38.3073ZM5.76774 34.6522C5.76774 33.3357 6.84038 32.2631 8.15772 32.2631C9.47505 32.2631 10.5477 33.3357 10.5477 34.6522C10.5477 35.9704 9.47505 37.043 8.15772 37.043C6.84038 37.043 5.76774 35.9704 5.76774 34.6522ZM6.05234 40.2114C6.70922 40.4613 7.41437 40.6144 8.15773 40.6144C8.90111 40.6144 9.60578 40.4613 10.2623 40.2114L11.9547 41.3067H11.9555C12.4482 41.626 12.7428 42.1664 12.7428 42.754V46.0201H3.5715V42.754C3.5715 42.1665 3.86606 41.6256 4.35872 41.3067L6.05234 40.2114Z" fill="#0085FF"/>
    <path d="M47.5802 38.3073L46.8607 37.8417C47.4502 36.9174 47.8034 35.8273 47.8034 34.6522C47.8034 31.365 45.1292 28.6916 41.842 28.6916C38.5548 28.6916 35.8806 31.365 35.8806 34.6522C35.8806 35.8277 36.2338 36.9174 36.8237 37.8422L36.105 38.3073C34.5895 39.2875 33.6855 40.9492 33.6855 42.754V47.8058C33.6855 48.7927 34.4851 49.5915 35.4712 49.5915H48.214C49.2001 49.5915 49.9997 48.7927 49.9997 47.8058V42.754C49.9997 40.9491 49.0957 39.287 47.5802 38.3073L47.5802 38.3073ZM39.4521 34.6522C39.4521 33.3357 40.5247 32.2631 41.842 32.2631C43.1594 32.2631 44.232 33.3357 44.232 34.6522C44.232 35.9704 43.1594 37.043 41.842 37.043C40.5243 37.043 39.4521 35.9704 39.4521 34.6522ZM39.7371 40.2114C40.3939 40.4609 41.0987 40.6143 41.8416 40.6143C42.585 40.6143 43.2901 40.4613 43.947 40.2114L45.6407 41.3067C46.1337 41.6255 46.4283 42.1664 46.4283 42.754V46.0201H37.2567V42.754C37.2567 42.1665 37.5512 41.6255 38.0447 41.3067L39.7371 40.2114Z" fill="#0085FF"/>
    <path d="M25 29.94C26.0176 29.94 26.8451 30.7874 26.8451 31.8305C26.8451 32.8174 27.6446 33.6162 28.6308 33.6162C29.6169 33.6162 30.4165 32.8174 30.4165 31.8305C30.4165 29.4414 28.8775 27.428 26.7546 26.6882C26.6721 25.7778 25.9315 25.0572 25 25.0572C24.0685 25.0572 23.3279 25.7775 23.2454 26.6882C21.1225 27.428 19.5835 29.4413 19.5835 31.8305C19.5835 34.8423 22.0137 37.2924 25 37.2924C26.0176 37.2924 26.8451 38.1418 26.8451 39.1845C26.8451 40.2273 26.0176 41.0746 25 41.0746C23.9824 41.0746 23.1549 40.2272 23.1549 39.1841C23.1549 38.1972 22.3553 37.3984 21.3692 37.3984C20.3831 37.3984 19.5835 38.1972 19.5835 39.1841C19.5835 41.5733 21.1225 43.5866 23.2454 44.3264C23.3279 45.2368 24.0685 45.9574 25 45.9574C25.9315 45.9574 26.6721 45.2372 26.7546 44.3264C28.8775 43.5866 30.4165 41.5734 30.4165 39.1841C30.4165 36.1708 27.9863 33.7206 25 33.7206C23.9824 33.7206 23.1549 32.8732 23.1549 31.8301C23.1549 30.7878 23.9824 29.94 25 29.94Z" fill="#0085FF"/>
</svg>
