<svg width="50" height="51" viewBox="0 0 50 51" fill="none" xmlns="http://www.w3.org/2000/svg">
    <path d="M49.2929 22.9319C43.8879 14.8919 34.8062 10.0923 25.0006 10.0923C15.1949 10.0923 6.11291 14.8921 0.708257 22.9309C-0.235953 24.3319 -0.235953 26.1439 0.707459 27.5458C5.92037 35.298 14.5533 40.0242 23.9552 40.3517C24.5577 40.4055 25.1729 40.4147 25.777 40.3601C35.2829 40.113 44.031 35.3706 49.2915 27.546C50.2361 26.1438 50.2361 24.333 49.2919 22.9323L49.2929 22.9319ZM26.4734 36.7225C25.4362 36.8361 24.3893 36.8213 23.3529 36.7117C17.589 35.9472 13.1282 31.1227 13.1282 25.2884C13.1282 18.9242 18.4302 13.7468 24.9484 13.7468C31.466 13.7468 36.7695 18.9241 36.7695 25.2884C36.7695 31.1469 32.2716 35.9883 26.4733 36.723L26.4734 36.7225ZM3.67632 25.5543C3.54537 25.3598 3.54537 25.1183 3.67632 24.9221C5.83818 21.7075 8.69402 19.1203 11.9538 17.2166C10.4406 19.5551 9.55112 22.3189 9.55112 25.2884C9.55112 28.1905 10.4035 30.8945 11.8539 33.1992C8.63648 31.3007 5.8158 28.7358 3.67622 25.5542L3.67632 25.5543ZM46.3238 25.5543C44.1475 28.7905 41.269 31.3925 37.9821 33.2989C39.4712 30.9731 40.3468 28.232 40.3468 25.2884C40.3468 22.2774 39.4349 19.4761 37.8827 17.1173C41.2128 19.0285 44.1261 21.6537 46.3251 24.9241C46.4549 25.1174 46.4549 25.359 46.324 25.5543L46.3238 25.5543Z" fill="#0085FF"/>
    <path d="M24.9494 19.1442C21.5092 19.1442 18.7104 21.9004 18.7104 25.2885C18.7104 28.6769 21.5096 31.4327 24.9494 31.4327C28.3905 31.4327 31.1896 28.6765 31.1896 25.2885C31.1896 21.9 28.3905 19.1442 24.9494 19.1442ZM24.9494 27.8614C23.4814 27.8614 22.2877 26.7071 22.2877 25.2885C22.2877 23.8698 23.4814 22.7155 24.9494 22.7155C26.4174 22.7155 27.6124 23.8698 27.6124 25.2885C27.6124 26.7071 26.4175 27.8614 24.9494 27.8614Z" fill="#0085FF"/>
    <path d="M24.9492 8.39844C25.937 8.39844 26.7379 7.59888 26.7379 6.61276V2.07365C26.7379 1.08753 25.937 0.287964 24.9492 0.287964C23.9615 0.287964 23.1606 1.08753 23.1606 2.07365V6.61276C23.1606 7.59888 23.9615 8.39844 24.9492 8.39844Z" fill="#0085FF"/>
    <path d="M24.9492 42.1775C23.9615 42.1775 23.1606 42.977 23.1606 43.9632V48.5023C23.1606 49.4884 23.9615 50.288 24.9492 50.288C25.937 50.288 26.7379 49.4884 26.7379 48.5023V43.9632C26.7379 42.977 25.937 42.1775 24.9492 42.1775Z" fill="#0085FF"/>
    <path d="M33.8791 8.39848C34.4092 8.39848 34.9342 8.1641 35.2867 7.71569L38.8572 3.17658C39.4668 2.40053 39.3315 1.27845 38.555 0.669075C37.7784 0.0604317 36.653 0.195552 36.0434 0.970805L32.4729 5.50991C31.8633 6.28597 31.9986 7.40805 32.7751 8.01742C33.1025 8.27372 33.4922 8.39848 33.8791 8.39848Z" fill="#0085FF"/>
    <path d="M14.6122 7.71578C14.9651 8.16379 15.4897 8.39856 16.0199 8.39856C16.4068 8.39856 16.7964 8.2738 17.1238 8.01751C17.9011 7.40806 18.0357 6.28488 17.426 5.51L13.8549 0.970887C13.2436 0.195624 12.1194 0.0613 11.3433 0.669157C10.5659 1.27861 10.4314 2.40178 11.041 3.17667L14.6122 7.71578Z" fill="#0085FF"/>
    <path d="M14.6122 42.8601L11.041 47.3992C10.4314 48.1745 10.5659 49.2974 11.3432 49.9068C11.6706 50.163 12.0603 50.2878 12.4472 50.2878C12.9774 50.2878 13.5023 50.0534 13.8549 49.605L17.426 45.0659C18.0357 44.2907 17.9011 43.1678 17.1238 42.5584C16.3473 41.9498 15.2226 42.0833 14.6122 42.8601Z" fill="#0085FF"/>
    <path d="M35.2863 42.8601C34.6758 42.0849 33.5519 41.9505 32.7746 42.5584C31.9981 43.1678 31.8628 44.2899 32.4724 45.0659L36.0429 49.605C36.3958 50.0534 36.9204 50.2878 37.4506 50.2878C37.8374 50.2878 38.2271 50.163 38.5545 49.9067C39.331 49.2973 39.4664 48.1752 38.8567 47.3992L35.2863 42.8601Z" fill="#0085FF"/>
</svg>
