<svg width="50" height="54" viewBox="0 0 50 54" fill="none" xmlns="http://www.w3.org/2000/svg">
    <path d="M49.5871 39.1625L46.0443 30.3433C45.1136 28.0252 42.7067 26.7943 40.4609 27.476L39.9154 27.6311L45.3132 22.1327C46.534 20.8896 46.945 19.0793 46.3881 17.4078C45.846 15.7835 44.4806 14.6181 42.8251 14.3661L32.4613 12.7918C32.2503 12.7605 32.0655 12.6112 31.9619 12.3913L27.3257 2.57812C26.5756 0.987796 25.0393 0 23.317 0H23.3162C21.5939 0 20.0573 0.986952 19.3062 2.57693L14.6709 12.3923C14.5673 12.6105 14.3804 12.7606 14.1707 12.7919L3.80772 14.3662C2.15093 14.6178 0.785555 15.7832 0.243864 17.4066C-0.313037 19.0781 0.0996726 20.8893 1.32046 22.1324L8.81938 29.7709C8.99866 29.954 9.08282 30.236 9.03841 30.5062L7.26796 41.2937C6.97788 43.065 7.69293 44.7988 9.13487 45.8179C10.5122 46.7947 12.2881 46.8936 13.7664 46.0834L22.0303 41.5432C21.8244 41.9395 21.6485 42.3534 21.5301 42.7903C20.6941 45.8788 22.3006 49.1129 25.2681 50.3134L30.9856 52.6259C31.6774 52.9063 32.4046 53.045 33.1299 53.045C34.0661 53.045 34.9986 52.8137 35.8459 52.3549L47.0089 46.3135C49.5612 44.9299 50.6691 41.8561 49.587 39.1625H49.5871ZM45.2042 42.9821L34.0435 49.0223C33.5364 49.2971 32.941 49.3301 32.4083 49.114L26.6892 46.8006C25.498 46.3185 24.8522 45.0208 25.188 43.7813C25.3944 43.0181 25.9547 42.3854 26.6858 42.0886L27.4063 41.7964L27.989 43.2438C28.0022 43.2874 28.0186 43.3297 28.0351 43.3724C28.4237 44.3437 29.5283 44.8096 30.5012 44.4261C30.9693 44.2392 31.3431 43.8739 31.541 43.4113C31.7372 42.9487 31.7444 42.4273 31.5558 41.9609L24.9152 25.4298C24.6674 24.812 24.9393 24.0949 25.5352 23.798C25.9775 23.579 26.3733 23.6733 26.5674 23.746C26.7644 23.8209 27.1234 24.0141 27.3065 24.4695L30.5219 32.4726C30.8826 33.3707 31.8522 33.8583 32.7974 33.5889L41.5311 31.1097C41.9882 30.9718 42.3616 31.3347 42.5303 31.7545L46.0731 40.5746C46.4367 41.4812 46.0629 42.5164 45.2045 42.9819L45.2042 42.9821ZM11.3225 42.7246C11.2282 42.6582 10.9259 42.402 11.0071 41.9077L12.7775 31.1193C13.0173 29.6588 12.5492 28.163 11.5233 27.1169L4.02353 19.4772C3.69412 19.1414 3.79857 18.7241 3.83874 18.6048C3.89244 18.4428 4.03495 18.1638 4.37704 18.1117L14.7408 16.5374C16.2005 16.3154 17.4547 15.3699 18.0975 14.0095L22.7328 4.19546C22.8999 3.84153 23.1701 3.78867 23.3164 3.78867H23.3172C23.4635 3.78867 23.7333 3.84152 23.8999 4.19588L28.5361 14.0075C29.1763 15.3699 30.4323 16.3163 31.8919 16.5383L42.2557 18.1126C42.5978 18.1646 42.7403 18.4437 42.794 18.6065C42.8346 18.7257 42.9382 19.1423 42.6092 19.478L35.1095 27.1186C34.5094 27.7309 34.1276 28.5039 33.9398 29.3276L33.4019 29.4803L30.8212 23.0579C30.2939 21.7462 29.2338 20.7064 27.9132 20.2045C26.5914 19.7051 25.1097 19.7783 23.8432 20.4087C21.4947 21.5809 20.4215 24.4065 21.4004 26.8421L25.8429 37.9022L25.4226 37.6713C24.7629 37.3077 24.0407 37.1267 23.3172 37.1267C22.595 37.1267 21.8723 37.3081 21.2139 37.6705L11.9435 42.7634C11.7304 42.8797 11.5215 42.8666 11.3224 42.7249L11.3225 42.7246Z" fill="#0085FF"/>
</svg>
