<svg width="50" height="63" viewBox="0 0 50 63" fill="none" xmlns="http://www.w3.org/2000/svg">
    <path d="M48.7864 32.9694C47.565 31.2637 45.6656 30.2857 43.5774 30.2857H29.2785C30.4523 27.4639 31.1497 25.4667 31.1497 21.2262C31.1497 21.2168 31.1442 21.2088 31.1442 21.1989C31.1442 21.1895 31.1497 21.1815 31.1497 21.1716C31.1497 18.175 29.0441 15.6571 27.2088 13.7985C25.5846 12.1514 23.1322 12.0208 21.3794 13.492C19.7289 14.8709 19.7224 16.7757 19.7169 18.1676C19.7159 18.5068 19.7159 18.8595 19.6896 19.2206L19.5848 20.67C18.4508 23.2434 17.1136 24.5631 15.4358 26.2013C15.1988 26.4323 14.9341 26.703 14.6828 26.9528C14.3152 26.2301 13.5845 25.721 12.7183 25.721H2.22526C0.996394 25.721 0 26.7174 0 27.9463L0.000496709 60.2494C0.000496709 61.4782 0.996891 62.4746 2.22575 62.4746H12.7188C13.9477 62.4746 14.9441 61.4782 14.9441 60.2494V57.9113H32.9801C37.9109 57.9113 42.4007 55.006 44.4213 50.5099L49.6562 38.8382C50.3277 36.8594 50.0039 34.6654 48.7869 32.9691L48.7864 32.9694ZM10.4929 58.0245H4.45038L4.45088 30.1719H10.4934L10.4929 58.0245ZM45.5185 37.2101L40.3616 48.686C39.0577 51.5859 36.1609 53.4604 32.9795 53.4604H14.9434V33.311L15.7377 32.3509C16.7092 31.1772 17.6425 30.2658 18.544 29.3856C20.6898 27.3153 24.2378 23.6759 24.129 19.5413C24.1628 19.0754 24.1658 18.6199 24.1673 18.1818C24.1683 17.8406 24.1708 17.3657 24.2031 17.0886C24.9779 17.8818 26.699 19.7331 26.699 21.2251C26.699 24.9356 26.1601 26.2181 24.8597 29.3135L23.8847 31.6689C23.6045 32.3543 23.6835 33.1356 24.0977 33.7516C24.5105 34.3665 25.2039 34.736 25.945 34.736H43.5779C44.2147 34.736 44.7948 35.0371 45.1708 35.5606C45.5573 36.101 45.6551 36.7736 45.518 37.2102L45.5185 37.2101Z" fill="#0085FF"/>
    <path d="M24.0988 10.7308C25.3277 10.7308 26.3241 9.73436 26.3241 8.5055V2.39252C26.3241 1.16366 25.3277 0.167267 24.0988 0.167267C22.8699 0.167267 21.8735 1.16366 21.8735 2.39252V8.5055C21.8735 9.73436 22.8699 10.7308 24.0988 10.7308Z" fill="#0085FF"/>
    <path d="M14.286 10.095C14.7186 10.5197 15.2814 10.7318 15.8442 10.7318C16.4199 10.7318 16.9971 10.5092 17.4327 10.0647C18.2935 9.18799 18.2801 7.77838 17.4024 6.91803L13.2757 2.86832C12.401 2.00753 10.9908 2.01994 10.1291 2.89862C9.26828 3.77531 9.28168 5.18491 10.1594 6.04526L14.286 10.095Z" fill="#0085FF"/>
    <path d="M32.3538 10.7308C32.9165 10.7308 33.4793 10.5187 33.9119 10.094L38.0386 6.04426C38.9163 5.18347 38.9297 3.77424 38.0689 2.89762C37.2016 2.01844 35.7959 2.00652 34.9222 2.86732L30.7956 6.91703C29.9179 7.77783 29.9045 9.18705 30.7653 10.0637C31.2019 10.5077 31.7776 10.7308 32.3538 10.7308V10.7308Z" fill="#0085FF"/>
</svg>
