<svg width="50" height="43" viewBox="0 0 50 43" fill="none" xmlns="http://www.w3.org/2000/svg">
    <path d="M49.8617 21.9605C49.7772 21.7373 49.6098 21.5679 49.4767 21.381L40.9998 12.9042L41.0002 2.75163C41.0002 1.76472 40.2007 0.965942 39.2145 0.965942H29.7324C28.7463 0.965942 27.9467 1.76472 27.9467 2.75163V8.10871H22.0544V6.32301C22.0544 5.3361 21.2548 4.53732 20.2687 4.53732H10.7861C9.80001 4.53732 9.00044 5.3361 9.00044 6.32301V12.9042L0.523613 21.381C0.219882 21.7302 -0.0140844 22.1674 0.000660336 22.6454V40.5023C0.000660336 41.4892 0.800232 42.288 1.78635 42.288H48.2143C49.2004 42.288 50 41.4892 50 40.5023V22.6454C49.9996 22.4122 49.9526 22.1794 49.8617 21.9606V21.9605ZM43.9051 20.8596H40.9998V17.9543L43.9051 20.8596ZM31.5186 4.5374H37.4293V20.8596H33.9292C33.3389 20.9063 32.8096 21.1893 32.4437 21.6548L31.5185 23.0424L31.5186 4.5374ZM27.9472 11.6802V26.2167H22.0548V11.6802H27.9472ZM12.5719 8.10878H18.4826V23.0423L17.5575 21.6547C17.1912 21.19 16.6622 20.9062 16.0719 20.8595H12.5718L12.5719 8.10878ZM9.00049 20.8596H6.09553L9.0009 17.9543L9.00049 20.8596ZM46.4286 38.7165H3.57199V24.431H15.1167L18.158 28.9929C18.4893 29.4899 19.0465 29.7881 19.6436 29.7881H30.3578C30.9549 29.7881 31.512 29.4899 31.8434 28.9929L34.8846 24.431H46.4294L46.4286 38.7165Z" fill="#0085FF"/>
    <path d="M17.3051 11.6811C17.3051 12.6628 16.5095 13.4588 15.5278 13.4588C14.5461 13.4588 13.7505 12.6628 13.7505 11.6811C13.7505 10.6997 14.5461 9.90373 15.5278 9.90373C16.5095 9.90373 17.3051 10.6997 17.3051 11.6811Z" fill="#0085FF"/>
    <path d="M26.7773 15.2515C26.7773 16.2332 25.9817 17.0288 25 17.0288C24.0182 17.0288 23.2227 16.2332 23.2227 15.2515C23.2227 14.2697 24.0182 13.4742 25 13.4742C25.9817 13.4742 26.7773 14.2697 26.7773 15.2515Z" fill="#0085FF"/>
    <path d="M36.2597 8.10867C36.2597 9.0904 35.4641 9.88599 34.4824 9.88599C33.5007 9.88599 32.7051 9.0904 32.7051 8.10867C32.7051 7.12694 33.5007 6.33134 34.4824 6.33134C35.4641 6.33134 36.2597 7.12694 36.2597 8.10867Z" fill="#0085FF"/>
</svg>
