<svg width="50" height="65" viewBox="0 0 50 65" fill="none" xmlns="http://www.w3.org/2000/svg">
    <path d="M12.4003 15.3432H25.4277C26.6906 15.3432 27.7127 14.321 27.7127 13.0581C27.7127 11.7952 26.6906 10.7731 25.4277 10.7731H12.4003C11.1374 10.7731 10.1152 11.7952 10.1152 13.0581C10.1152 14.321 11.1374 15.3432 12.4003 15.3432Z" fill="#0085FF"/>
    <path d="M18.5725 18.4848H12.4003C11.1374 18.4848 10.1152 19.5069 10.1152 20.7698C10.1152 22.0327 11.1374 23.0549 12.4003 23.0549H18.5725C19.8354 23.0549 20.8576 22.0327 20.8576 20.7698C20.8576 19.5069 19.8354 18.4848 18.5725 18.4848Z" fill="#0085FF"/>
    <path d="M16.6285 26.2017H12.4042C11.1413 26.2017 10.1191 27.2239 10.1191 28.4868C10.1191 29.7497 11.1413 30.7718 12.4042 30.7718H16.6285C17.8914 30.7718 18.9136 29.7497 18.9136 28.4868C18.9136 27.2234 17.8919 26.2017 16.6285 26.2017Z" fill="#0085FF"/>
    <path d="M49.5683 50.1053L46.1428 41.5808C45.1518 39.1192 42.5949 37.8187 40.2001 38.5414L37.8279 39.2147L37.8284 13.6052C37.8284 10.3582 35.1883 7.71863 31.9439 7.71863H28.7596V6.23035C28.7596 4.96745 27.7375 3.9453 26.4746 3.9453H24.5353C23.6294 1.73168 21.4515 0.167267 18.9165 0.167267C16.3816 0.167267 14.2036 1.73155 13.2998 3.9453H11.3605C10.0976 3.9453 9.07543 4.96745 9.07543 6.23035V7.71863H5.88916C2.64217 7.71863 0 10.3607 0 13.6097V45.7127C0 48.9597 2.64204 51.6019 5.88916 51.6019H22.6105C22.1642 52.2287 21.7913 52.9102 21.5878 53.6661C20.7197 56.8748 22.3866 60.2336 25.4663 61.4765L30.9958 63.7126C31.7186 64.0044 32.4795 64.1492 33.2386 64.1492C34.2158 64.1492 35.191 63.908 36.0791 63.4306L46.8704 57.5884C49.5394 56.143 50.6999 52.9271 49.5686 50.1064L49.5683 50.1053ZM44.6948 53.5685L33.9076 59.4082C33.5373 59.6066 33.0997 59.6357 32.7095 59.475L27.18 57.239C26.2404 56.8595 25.734 55.8353 25.9997 54.8534C26.1604 54.2551 26.6 53.7578 27.1779 53.5257L27.4549 53.414L27.8389 54.3693C27.8726 54.4764 27.917 54.5815 27.9685 54.6861C28.5311 55.8153 29.9124 56.2728 31.0391 55.7057C32.1036 55.1721 32.581 53.9138 32.1372 52.809L25.7172 36.832C25.5631 36.4458 25.7284 36.0128 26.1012 35.8277C26.3736 35.6935 26.6123 35.7542 26.7327 35.7965C26.8531 35.8409 27.0739 35.9618 27.1882 36.2428L30.2944 43.9794C30.7274 45.0617 31.8965 45.6528 33.0391 45.3249L41.4897 42.9262C41.6927 42.8547 41.8421 43.1337 41.9049 43.2852L45.3304 51.8073C45.5941 52.4734 45.3217 53.2299 44.6948 53.569L44.6948 53.5685ZM4.57063 45.7116V13.6087C4.57063 12.8926 5.17555 12.2877 5.88969 12.2877H9.07596V13.7872C9.07596 15.0501 10.0981 16.0722 11.361 16.0722H26.475C27.7379 16.0722 28.76 15.0501 28.76 13.7872V12.2877H31.9443C32.6696 12.2877 33.2587 12.8788 33.2587 13.6041V39.1L31.4266 34.538C30.8686 33.1501 29.7465 32.052 28.3514 31.5231C26.9544 30.9941 25.3881 31.0722 24.0583 31.7393C21.579 32.9757 20.4456 35.961 21.4765 38.5343L24.8893 47.0297H5.88943C5.17534 47.0297 4.57037 46.4253 4.57037 45.7111L4.57063 45.7116ZM15.139 8.51498C16.4019 8.51498 17.4241 7.49283 17.4241 6.22993C17.4241 5.4067 18.0933 4.73695 18.9171 4.73695C19.7403 4.73695 20.412 5.40665 20.412 6.22993C20.412 7.49283 21.4342 8.51498 22.6971 8.51498H24.19V11.5029H13.6462V8.51498H15.139Z" fill="#0085FF"/>
</svg>
