<svg width="25" height="21" viewBox="0 0 25 21" fill="none" xmlns="http://www.w3.org/2000/svg">
    <path d="M2.4082 9.16081C9.79336 6.05498 19.3503 2.26833 20.6695 1.74423C24.13 0.37248 25.1918 0.635371 24.6624 3.67323C24.2822 5.85669 23.1851 13.0856 22.3108 17.5851C21.7919 20.2534 20.6278 20.5696 18.7974 19.4153C17.9172 18.8597 13.4742 16.051 12.5099 15.3916C11.6297 14.7905 10.4156 14.0676 11.9382 12.6436C12.4799 12.1363 16.0315 8.89455 18.7986 6.37124C19.1611 6.03982 18.7057 5.4955 18.2874 5.7612C14.5578 8.12554 9.38673 11.4072 8.7286 11.8347C7.73435 12.4801 6.77948 12.7761 5.0654 12.3054C3.77029 11.9498 2.50515 11.5257 2.01273 11.3639C0.116495 10.7415 0.566608 9.93544 2.4082 9.16081Z" fill="#808080"/>
</svg>
