<?xml version="1.0" encoding="utf-8"?><svg width="33" height="27" fill="none" xmlns="http://www.w3.org/2000/svg" viewBox="0 0 33 27"><path d="M5.586 15.096a2.338 2.338 0 11-4.677 0 2.338 2.338 0 014.677 0zM17.092 7.227a2.338 2.338 0 11-4.677 0 2.338 2.338 0 014.677 0zM23.848 23.782a2.338 2.338 0 11-4.677 0 2.338 2.338 0 014.677 0zM31.791 3.218a2.338 2.338 0 11-4.677 0 2.338 2.338 0 014.677 0zM13.158 23.114a2.338 2.338 0 11-4.677 0 2.338 2.338 0 014.677 0z" fill="#0085FF"/><path d="M3.544 15.69l7.46 7.46 4.047-14.438 6.421 14.439 7.98-20.341M5.587 15.096a2.338 2.338 0 11-4.677 0 2.338 2.338 0 014.677 0zm11.506-7.869a2.338 2.338 0 11-4.677 0 2.338 2.338 0 014.677 0zm6.756 16.555a2.338 2.338 0 11-4.677 0 2.338 2.338 0 014.677 0zM31.79 3.218a2.338 2.338 0 11-4.677 0 2.338 2.338 0 014.677 0zM13.158 23.114a2.338 2.338 0 11-4.677 0 2.338 2.338 0 014.677 0z" stroke="#0085FF" stroke-width="1.616"/></svg>