<?xml version="1.0" encoding="utf-8"?><svg width="50" height="51" fill="none" xmlns="http://www.w3.org/2000/svg" viewBox="0 0 50 51"><path d="M48.83 20.49l-3.971-1.457a20.778 20.778 0 00-1.394-3.362l1.777-3.84a1.782 1.782 0 00-.357-2.012L40.47 5.403a1.781 1.781 0 00-2.013-.357l-3.84 1.778a20.795 20.795 0 00-3.36-1.394l-1.46-3.972a1.786 1.786 0 00-1.676-1.17h-6.243c-.748 0-1.418.468-1.675 1.17l-1.46 3.972a20.8 20.8 0 00-3.36 1.394l-3.84-1.778a1.78 1.78 0 00-2.013.357L5.115 9.82a1.782 1.782 0 00-.358 2.012l1.777 3.84a20.767 20.767 0 00-1.393 3.361L1.17 20.49c-.702.26-1.17.928-1.17 1.677v6.243c0 .75.468 1.418 1.17 1.677l3.971 1.458a20.78 20.78 0 001.394 3.361l-1.777 3.84a1.783 1.783 0 00.357 2.013l4.415 4.415c.529.531 1.34.672 2.013.358l3.84-1.778a20.795 20.795 0 003.36 1.393l1.46 3.972c.258.702.927 1.17 1.676 1.17h6.243c.748 0 1.418-.468 1.675-1.17l1.46-3.972a20.799 20.799 0 003.36-1.394l3.84 1.778a1.784 1.784 0 002.013-.358l4.416-4.415c.53-.53.673-1.333.357-2.013l-1.777-3.84a20.767 20.767 0 001.394-3.361l3.97-1.458A1.787 1.787 0 0050 28.41v-6.243c0-.749-.468-1.418-1.17-1.677zm-2.401 6.673l-3.649 1.34c-.545.2-.96.654-1.11 1.217a17.207 17.207 0 01-1.748 4.219 1.782 1.782 0 00-.077 1.647l1.632 3.529-2.65 2.652-3.53-1.634a1.788 1.788 0 00-1.648.077 17.099 17.099 0 01-4.216 1.747 1.788 1.788 0 00-1.218 1.111l-1.34 3.649h-3.75l-1.34-3.65a1.788 1.788 0 00-1.218-1.11 17.097 17.097 0 01-4.216-1.748 1.787 1.787 0 00-1.648-.077l-3.53 1.634-2.65-2.652 1.632-3.529a1.78 1.78 0 00-.077-1.647A17.213 17.213 0 018.33 29.72a1.787 1.787 0 00-1.11-1.216l-3.648-1.34v-3.75l3.648-1.34c.546-.2.96-.653 1.11-1.216a17.21 17.21 0 011.748-4.219 1.782 1.782 0 00.077-1.647l-1.632-3.529 2.65-2.652 3.53 1.634c.53.246 1.142.218 1.648-.077a17.1 17.1 0 014.216-1.747 1.788 1.788 0 001.218-1.111l1.34-3.649h3.75l1.34 3.65c.201.546.656.96 1.218 1.11 1.479.391 2.897.98 4.217 1.748a1.783 1.783 0 001.647.076l3.53-1.633 2.65 2.652-1.632 3.529a1.78 1.78 0 00.077 1.646 17.216 17.216 0 011.748 4.22c.15.562.565 1.015 1.11 1.216l3.649 1.34v3.749z" fill="#0085FF"/><path d="M25 11.002c-7.877 0-14.285 6.41-14.285 14.286 0 7.877 6.409 14.286 14.285 14.286 7.877 0 14.286-6.409 14.286-14.286S32.877 11.002 25 11.002zM34.6 27.074h.954a10.724 10.724 0 01-8.767 8.767v-.955a1.785 1.785 0 10-3.571 0v.955a10.723 10.723 0 01-8.767-8.767h.954a1.785 1.785 0 100-3.572h-.954a10.723 10.723 0 018.767-8.767v.955a1.785 1.785 0 103.571 0v-.955a10.723 10.723 0 018.767 8.767H34.6a1.785 1.785 0 100 3.572z" fill="#0085FF"/><path d="M29.888 25.592l-3.102-1.443v-3.178a1.785 1.785 0 10-3.572 0v4.317c0 .695.403 1.326 1.033 1.62l4.134 1.923a1.784 1.784 0 002.372-.866 1.785 1.785 0 00-.865-2.373z" fill="#0085FF"/></svg>