<?xml version="1.0" encoding="utf-8"?><svg width="50" height="46" fill="none" xmlns="http://www.w3.org/2000/svg" viewBox="0 0 50 46"><path d="M47.654 32.3h-6.097V6.23A5.947 5.947 0 0035.616.29L5.939.29A5.946 5.946 0 000 6.23v5.148a2.35 2.35 0 002.347 2.347H8.44v25.292c0 1.742.592 3.391 1.666 4.647 1.143 1.334 2.684 2.07 4.34 2.07H43.995c3.312 0 6.006-3.013 6.006-6.718v-4.37a2.349 2.349 0 00-2.345-2.347h-.001zM35.616 3.86c.251 0 .482.071.709.144.955.306 1.66 1.172 1.66 2.227V32.3H19.23c-1.095 0-1.975.77-2.233 1.786-.047.184-.114.362-.114.56v4.371c0 1.706-1.115 3.146-2.435 3.146-.596 0-1.173-.291-1.628-.821-.52-.61-.808-1.434-.808-2.325l.002-32.786a5.86 5.86 0 00-.503-2.37h24.106zM3.572 6.23c0-1.306 1.061-2.368 2.502-2.368A2.37 2.37 0 018.442 6.23v3.924h-4.87V6.23zm42.856 32.787c0 1.705-1.114 3.146-2.434 3.146H19.722a7.25 7.25 0 00.732-3.146V35.87h25.973v3.147z" fill="#0085FF"/><path d="M17.612 21.71h14.775a1.785 1.785 0 100-3.57H17.612a1.785 1.785 0 100 3.57zM17.612 14.324h14.775a1.785 1.785 0 100-3.572H17.612a1.785 1.785 0 100 3.572zM17.612 29.097H25a1.785 1.785 0 100-3.571h-7.388a1.785 1.785 0 100 3.571z" fill="#0085FF"/></svg>