<?xml version="1.0" encoding="utf-8"?><svg width="51" height="57" fill="none" xmlns="http://www.w3.org/2000/svg" viewBox="0 0 51 57"><path d="M49.606 24.671l-2.433-3.42a3.48 3.48 0 01-.61-1.493C44.927 8.735 35.15.365 23.818.288 17.558.258 11.676 2.643 7.242 7.038 2.91 11.329.515 17.003.5 23.016.48 30.852 4.478 38.055 11.194 42.28c1.1.691 1.755 1.854 1.755 3.108v9.146a2.01 2.01 0 004.019 0V45.39c0-2.645-1.358-5.08-3.633-6.51-5.537-3.484-8.833-9.412-8.816-15.855.011-4.935 1.983-9.6 5.551-13.135 3.67-3.635 8.582-5.557 13.721-5.583 9.37.064 17.451 6.96 18.798 16.039a7.512 7.512 0 001.31 3.231L46.331 27c.242.34.171.805-.162 1.058l-3.343 2.547c-.5.38-.792.972-.792 1.598v8.798c0 .462-.398.838-.888.838h-5.42c-1.11 0-2.01.9-2.01 2.009v10.687a2.01 2.01 0 004.018 0v-8.678h3.412c2.705 0 4.907-2.178 4.907-4.856v-7.803l2.552-1.944a4.768 4.768 0 001.001-6.583z" fill="#0085FF"/><path d="M33.019 20.082l-5.33-2.485 2.137-4.582a3.109 3.109 0 00-.92-3.795A3.108 3.108 0 0025 9.284l-11.997 9.758a3.107 3.107 0 00-1.155 2.812 3.11 3.11 0 001.784 2.466l5.33 2.485-2.138 4.582a3.11 3.11 0 00.922 3.795c.569.438 1.24.657 1.912.657.707 0 1.412-.24 1.993-.722l11.997-9.758a3.109 3.109 0 001.154-2.815 3.106 3.106 0 00-1.783-2.462zm-11.551 3.459l-4.835-2.255 7.88-6.385-.843 1.806v.003a3.131 3.131 0 001.513 4.153l4.834 2.254-7.878 6.385.841-1.806a3.13 3.13 0 00-1.512-4.155z" fill="#0085FF"/></svg>