<?xml version="1.0" encoding="utf-8"?><svg width="51" height="51" fill="none" xmlns="http://www.w3.org/2000/svg" viewBox="0 0 51 51"><path d="M49.33 20.49l-3.971-1.458a20.778 20.778 0 00-1.394-3.361l1.777-3.84a1.782 1.782 0 00-.357-2.013L40.97 5.403a1.781 1.781 0 00-2.013-.358l-3.84 1.778a20.795 20.795 0 00-3.36-1.394l-1.46-3.971a1.786 1.786 0 00-1.676-1.17h-6.243c-.748 0-1.418.468-1.675 1.17l-1.46 3.972a20.8 20.8 0 00-3.36 1.393l-3.84-1.778a1.781 1.781 0 00-2.013.358L5.615 9.818a1.782 1.782 0 00-.358 2.013l1.777 3.84a20.767 20.767 0 00-1.393 3.36L1.67 20.49c-.702.259-1.17.928-1.17 1.677v6.243c0 .749.468 1.418 1.17 1.677l3.971 1.457a20.78 20.78 0 001.394 3.362l-1.777 3.84a1.782 1.782 0 00.357 2.012l4.415 4.415c.53.531 1.34.673 2.013.358l3.84-1.778a20.795 20.795 0 003.36 1.394l1.46 3.971c.258.702.927 1.17 1.676 1.17h6.243c.748 0 1.418-.468 1.675-1.17l1.46-3.972a20.808 20.808 0 003.36-1.394l3.84 1.778a1.784 1.784 0 002.013-.357l4.416-4.416c.53-.529.673-1.333.357-2.012l-1.777-3.84a20.767 20.767 0 001.394-3.362l3.97-1.457a1.787 1.787 0 001.17-1.677v-6.243c0-.748-.468-1.417-1.17-1.677zm-2.401 6.672l-3.649 1.34c-.545.201-.96.655-1.11 1.217a17.207 17.207 0 01-1.748 4.22 1.782 1.782 0 00-.077 1.646l1.632 3.529-2.65 2.652-3.53-1.634a1.788 1.788 0 00-1.648.077 17.099 17.099 0 01-4.216 1.748 1.788 1.788 0 00-1.218 1.11l-1.34 3.65h-3.75l-1.34-3.65a1.788 1.788 0 00-1.218-1.11 17.1 17.1 0 01-4.216-1.748 1.787 1.787 0 00-1.648-.077l-3.53 1.634-2.65-2.652 1.632-3.53a1.78 1.78 0 00-.077-1.646 17.212 17.212 0 01-1.748-4.22 1.787 1.787 0 00-1.11-1.216l-3.648-1.34v-3.749l3.648-1.34c.546-.2.96-.654 1.11-1.216a17.21 17.21 0 011.748-4.22 1.782 1.782 0 00.077-1.646l-1.632-3.53 2.65-2.651 3.53 1.633c.53.246 1.142.218 1.648-.076a17.099 17.099 0 014.216-1.748 1.788 1.788 0 001.218-1.11l1.34-3.65h3.75l1.34 3.65c.201.546.656.96 1.218 1.11 1.479.392 2.897.98 4.217 1.748a1.782 1.782 0 001.647.077l3.53-1.634 2.65 2.652-1.632 3.529a1.78 1.78 0 00.077 1.647 17.216 17.216 0 011.748 4.22c.15.561.565 1.015 1.11 1.216l3.649 1.34v3.748z" fill="#0085FF"/><path d="M33.76 27.34l-1.946-1.259c1.144-1.405 1.858-3.174 1.858-5.123 0-4.505-3.666-8.171-8.172-8.171s-8.171 3.665-8.171 8.17c0 1.95.714 3.718 1.857 5.124l-1.946 1.26a7.126 7.126 0 00-3.268 6.006V36c0 .986.799 1.786 1.785 1.786h19.486c.987 0 1.786-.8 1.786-1.786v-2.654a7.126 7.126 0 00-3.268-6.007zm-16.217 6.007c0-1.221.613-2.345 1.636-3.008l2.992-1.935a8.096 8.096 0 003.33.725c1.188 0 2.31-.268 3.329-.726l2.992 1.937a3.568 3.568 0 011.636 3.007v.868H17.543v-.868zM20.9 20.958c0-2.536 2.063-4.6 4.6-4.6 2.538 0 4.6 2.064 4.6 4.6 0 2.537-2.062 4.6-4.6 4.6a4.605 4.605 0 01-4.6-4.6z" fill="#0085FF"/></svg>