<?xml version="1.0" encoding="utf-8"?><svg width="51" height="53" fill="none" xmlns="http://www.w3.org/2000/svg" viewBox="0 0 51 53"><path d="M49.682 22.984l-2.267-3.204a3.308 3.308 0 01-.569-1.371C45.344 8.159 36.246.369 25.683.289l-.154-.001a21.527 21.527 0 00-15.26 6.283c-4.027 3.992-6.252 9.268-6.26 14.857 0 2.567.443 5.041 1.316 7.352a1.871 1.871 0 002.41 1.088c.34-.13.594-.365.8-.636.375-.495.524-1.149.288-1.773-.714-1.888-1.077-3.917-1.077-6.027.009-4.584 1.84-8.92 5.156-12.208a17.817 17.817 0 0112.627-5.198h.127c8.735.067 16.255 6.483 17.498 14.96a7.017 7.017 0 001.214 2.96l2.268 3.206a.707.707 0 01-.157.978l-3.104 2.374a1.87 1.87 0 00-.733 1.485v8.167c0 .433-.37.785-.823.785h-5.047a1.87 1.87 0 00-1.869 1.87v9.943a1.87 1.87 0 003.738 0v-8.075h3.178c2.515 0 4.56-2.03 4.56-4.523v-7.244l2.356-1.802c1.914-1.436 2.336-4.187.947-6.126z" fill="#0085FF"/><path d="M16.787 39.155a1.87 1.87 0 00-1.312 2.295c.069.252.103.513.103.799v8.504a1.87 1.87 0 003.738 0v-8.504a6.77 6.77 0 00-.234-1.782 1.869 1.869 0 00-2.295-1.312z" fill="#0085FF"/><path d="M25.686 33.034a12.18 12.18 0 008.62-3.55 12.044 12.044 0 003.575-8.593c0-3.247-1.27-6.3-3.575-8.594-4.752-4.732-12.486-4.734-17.24 0a12.045 12.045 0 00-3.574 8.594c0 2.614.835 5.096 2.36 7.164L12.2 31.723l-.453-.452a1.85 1.85 0 00-1.226-.527 1.843 1.843 0 00-1.412.527l-7.301 7.27A4.403 4.403 0 00.5 41.68a4.444 4.444 0 004.45 4.437 4.444 4.444 0 003.145-1.294l7.302-7.27a1.868 1.868 0 000-2.648l-.55-.546 3.655-3.67a12.2 12.2 0 007.185 2.344zm5.983-18.089a8.335 8.335 0 012.474 5.946c0 2.245-.88 4.356-2.474 5.945-3.294 3.28-8.651 3.283-11.953.01-.004-.004-.005-.01-.01-.014-.003-.004-.01-.006-.014-.01a8.334 8.334 0 01-2.463-5.931c0-2.246.88-4.357 2.474-5.946 3.299-3.283 8.666-3.283 11.965 0zM4.444 42.175a.696.696 0 010-.986l5.982-5.956 1.002.997-5.971 5.946a.72.72 0 01-1.013 0z" fill="#0085FF"/></svg>