<?xml version="1.0" encoding="utf-8"?><svg width="30" height="51" fill="none" xmlns="http://www.w3.org/2000/svg" viewBox="0 0 30 51"><path d="M29.809 25.289c0-5.134-2.61-9.667-6.567-12.336V2.074c0-.986-.796-1.785-1.78-1.785H8.537c-.983 0-1.78.8-1.78 1.785v10.879C2.8 15.623.19 20.155.19 25.289c0 5.133 2.61 9.665 6.566 12.335v10.879c0 .986.797 1.786 1.78 1.786h12.926c.983 0 1.78-.8 1.78-1.786V37.624c3.956-2.67 6.566-7.202 6.566-12.335zM10.317 46.717v-7.344c1.474.494 3.045.773 4.683.773a14.68 14.68 0 004.683-.773v7.344h-9.366zM15 36.575c-6.202 0-11.25-5.064-11.25-11.287 0-6.223 5.047-11.287 11.25-11.287s11.25 5.064 11.25 11.287c0 6.223-5.046 11.287-11.25 11.287zm4.683-32.716v7.345A14.677 14.677 0 0015 10.43c-1.638 0-3.209.28-4.683.774V3.86h9.366z" fill="#0085FF"/><path d="M20.468 25.878l-3.688-1.72v-3.803c0-.986-.797-1.786-1.78-1.786s-1.78.8-1.78 1.786v4.942c0 .695.402 1.326 1.03 1.619l4.716 2.2a1.783 1.783 0 002.366-.866 1.79 1.79 0 00-.864-2.372z" fill="#0085FF"/></svg>