<?xml version="1.0" encoding="utf-8"?><svg width="50" height="47" fill="none" xmlns="http://www.w3.org/2000/svg" viewBox="0 0 50 47"><path d="M42.416.289H7.589C3.404.289 0 3.693 0 7.878v23.19c0 4.052 3.195 7.373 7.197 7.575v5.126c0 1.138.637 2.154 1.66 2.65.414.2.853.299 1.29.299.647 0 1.288-.217 1.823-.638l5.013-3.963a16.136 16.136 0 019.966-3.464h15.462c4.185 0 7.589-3.404 7.589-7.589V7.874C50 3.69 46.598.288 42.416.288zm4.012 30.775a4.023 4.023 0 01-4.017 4.017H26.948a19.72 19.72 0 00-12.18 4.233l-4 3.163v-5.61c0-.987-.8-1.786-1.786-1.786H7.584a4.017 4.017 0 01-4.013-4.013V7.878A4.023 4.023 0 017.59 3.86h34.827c2.213 0 4.012 1.8 4.012 4.013v23.191z" fill="#0085FF"/><path d="M23.89 7.026c-.987 0-1.785.8-1.785 1.786v.585c-5.434.861-9.606 5.565-9.606 11.237 0 6.281 5.11 11.392 11.391 11.392 5.673 0 10.377-4.173 11.24-9.607h.584c.987 0 1.786-.8 1.786-1.785 0-7.504-6.105-13.608-13.61-13.608zm-7.82 13.608c0-3.695 2.585-6.782 6.035-7.595v7.595c0 .987.798 1.786 1.785 1.786h7.596c-.813 3.451-3.9 6.035-7.596 6.035-4.31 0-7.82-3.508-7.82-7.82zm9.606-1.785v-8.093a10.066 10.066 0 018.093 8.093h-8.093z" fill="#0085FF"/></svg>