<?xml version="1.0" encoding="utf-8"?><svg width="50" height="44" fill="none" xmlns="http://www.w3.org/2000/svg" viewBox="0 0 50 44"><path d="M47.455 31.805l-.88-.57a6.243 6.243 0 001.06-3.483 6.291 6.291 0 00-6.285-6.283 6.29 6.29 0 00-6.283 6.283c0 1.288.392 2.484 1.059 3.482l-.883.57c-.559.363-1.005.836-1.392 1.35l-3.71-1.564c.127-.455.216-.924.216-1.418 0-2.325-1.497-4.289-3.572-5.028v-2.62h5.078c.987 0 1.786-.8 1.786-1.786v-5.44c0-1.897-.95-3.644-2.544-4.674l-.881-.57a6.245 6.245 0 001.058-3.482A6.29 6.29 0 0025 .289a6.29 6.29 0 00-6.283 6.283c0 1.287.391 2.484 1.058 3.482l-.88.57a5.544 5.544 0 00-2.545 4.675v5.44c0 .986.799 1.785 1.786 1.785h5.078v2.62c-2.074.739-3.572 2.703-3.572 5.027 0 .494.09.964.215 1.419l-3.709 1.564c-.387-.514-.833-.988-1.391-1.35h-.002l-.882-.57a6.244 6.244 0 001.06-3.482A6.29 6.29 0 008.65 21.47a6.291 6.291 0 00-6.285 6.283c0 1.288.392 2.485 1.06 3.483l-.88.569A5.541 5.541 0 000 36.478v5.44c0 .987.799 1.787 1.786 1.787h13.726c.987 0 1.786-.8 1.786-1.786v-5.373l4.666-1.969a5.318 5.318 0 006.072 0l4.666 1.969v5.373c0 .986.8 1.786 1.786 1.786h13.726c.987 0 1.786-.8 1.786-1.786v-5.44c0-1.897-.95-3.644-2.544-4.674h-.001zM22.288 6.57A2.715 2.715 0 0125 3.86 2.715 2.715 0 0127.71 6.57 2.716 2.716 0 0125 9.284a2.716 2.716 0 01-2.712-2.713zm-2.366 12.382v-3.654c0-.68.34-1.308.912-1.676l1.876-1.214c.711.28 1.48.446 2.29.446s1.578-.166 2.29-.446l1.876 1.214c.572.369.912.995.912 1.676v3.654H19.922zm18.717 8.8a2.715 2.715 0 012.711-2.712 2.716 2.716 0 012.713 2.711 2.715 2.715 0 01-2.713 2.712 2.715 2.715 0 01-2.711-2.712zm-2.365 8.725c0-.68.34-1.306.91-1.675l1.877-1.214c.71.28 1.48.446 2.29.446.809 0 1.577-.166 2.289-.446l1.877 1.214c.572.37.911.995.911 1.675v3.655H36.275v-3.655zM5.937 27.752a2.715 2.715 0 012.713-2.711 2.715 2.715 0 012.711 2.711 2.715 2.715 0 01-2.711 2.712 2.715 2.715 0 01-2.713-2.712zm2.713 6.283c.81 0 1.578-.166 2.29-.446l1.876 1.214c.57.369.91.996.91 1.675v3.655H3.572v-3.655c0-.68.34-1.306.912-1.675l1.876-1.214c.712.28 1.48.446 2.29.446zm14.564-3.863c0-.982.796-1.78 1.777-1.784l.009.001.008-.001c.981.005 1.777.802 1.777 1.784 0 .984-.8 1.785-1.785 1.785a1.787 1.787 0 01-1.786-1.785z" fill="#0085FF"/></svg>