<?xml version="1.0" encoding="utf-8"?><svg width="53" height="54" fill="none" xmlns="http://www.w3.org/2000/svg" viewBox="0 0 53 54"><path d="M52.446 11.762a1.893 1.893 0 00-.918-3.184c-1.023-.232-1.988-.685-2.87-1.271l1.403-1.403a1.892 1.892 0 10-2.677-2.677L45.982 4.63c-.587-.882-1.039-1.847-1.272-2.87a1.894 1.894 0 00-3.184-.917c-2.385 2.385-4.084 5.303-5.064 8.576a20.649 20.649 0 00-8.644-2.796l.001-3.295a1.893 1.893 0 00-3.785 0v3.295c-9.98.904-17.943 8.868-18.847 18.847H1.893a1.893 1.893 0 000 3.785h3.294c.904 9.98 8.868 17.942 18.846 18.847v3.294a1.893 1.893 0 003.786 0v-3.294c9.979-.904 17.942-8.868 18.846-18.847h3.296a1.893 1.893 0 000-3.785h-3.295a20.65 20.65 0 00-2.796-8.644c3.273-.98 6.19-2.679 8.576-5.064zM44.48 8.79c.004.004.005.009.008.012.003.003.008.004.011.008.87.867 1.858 1.616 2.933 2.21-2.313 1.575-5.04 2.554-8.039 2.876.322-2.999 1.302-5.725 2.876-8.039a13.23 13.23 0 002.211 2.933zM25.926 38.583c-6.187 0-11.22-5.033-11.22-11.22s5.034-11.22 11.22-11.22c2.412 0 4.642.771 6.473 2.07l-2.541 2.542c-1.156-.69-2.49-1.113-3.932-1.113-4.257 0-7.721 3.464-7.721 7.721s3.464 7.721 7.721 7.721 7.721-3.464 7.721-7.72c0-1.442-.422-2.777-1.113-3.933l2.541-2.541a11.148 11.148 0 012.072 6.473c0 6.187-5.033 11.221-11.221 11.221zm3.935-11.22a3.94 3.94 0 01-3.935 3.936 3.94 3.94 0 01-3.935-3.936 3.94 3.94 0 013.935-3.935c.38 0 .74.071 1.087.172l-2.419 2.419a1.892 1.892 0 102.676 2.677l2.42-2.42c.1.348.171.708.171 1.087zm5.706-13.213l-.077.973-.39.391a14.916 14.916 0 00-7.282-3.024v-2.064a16.938 16.938 0 017.841 2.96c-.028.255-.07.506-.092.764zm-11.534-1.66c-6.761.857-12.124 6.22-12.981 12.982H8.987c.876-7.891 7.155-14.17 15.046-15.046v2.064zM11.052 29.256c.857 6.761 6.22 12.124 12.98 12.981v2.065c-7.89-.876-14.169-7.155-15.045-15.046h2.065zm16.767 12.981c6.76-.857 12.124-6.22 12.981-12.98h2.064c-.876 7.89-7.154 14.169-15.045 15.045v-2.065zm12.98-16.766a14.916 14.916 0 00-3.024-7.281l.392-.391.972-.077c.259-.02.509-.064.764-.092a16.937 16.937 0 012.96 7.84H40.8z" fill="#0085FF"/></svg>