<?xml version="1.0" encoding="utf-8"?><svg width="50" height="51" fill="none" xmlns="http://www.w3.org/2000/svg" viewBox="0 0 50 51"><path d="M49.293 22.932c-5.405-8.04-14.487-12.84-24.292-12.84-9.806 0-18.888 4.8-24.293 12.839a4.115 4.115 0 000 4.615c5.212 7.752 13.845 12.478 23.247 12.806.603.054 1.218.063 1.822.008 9.506-.247 18.254-4.99 23.514-12.814a4.11 4.11 0 000-4.614h.002zm-22.82 13.79a14.584 14.584 0 01-3.12-.01c-5.764-.765-10.225-5.59-10.225-11.424 0-6.364 5.302-11.541 11.82-11.541 6.518 0 11.822 5.177 11.822 11.541 0 5.859-4.498 10.7-10.297 11.435zM3.676 25.554a.558.558 0 010-.632c2.162-3.215 5.018-5.802 8.278-7.705a14.804 14.804 0 00-2.403 8.071c0 2.902.852 5.607 2.303 7.911-3.218-1.898-6.038-4.463-8.178-7.645zm42.648 0c-2.176 3.237-5.055 5.838-8.342 7.745 1.49-2.326 2.365-5.067 2.365-8.01 0-3.012-.912-5.813-2.464-8.172 3.33 1.912 6.243 4.537 8.442 7.807.13.193.13.435-.001.63z" fill="#0085FF"/><path d="M24.95 19.144c-3.44 0-6.24 2.756-6.24 6.145 0 3.388 2.8 6.144 6.24 6.144 3.44 0 6.24-2.756 6.24-6.145 0-3.388-2.8-6.144-6.24-6.144zm0 8.717c-1.469 0-2.662-1.154-2.662-2.573 0-1.418 1.193-2.573 2.661-2.573s2.663 1.155 2.663 2.573c0 1.42-1.194 2.573-2.663 2.573zM24.95 8.398c.987 0 1.788-.8 1.788-1.785v-4.54c0-.985-.801-1.785-1.789-1.785-.988 0-1.788.8-1.788 1.786v4.539c0 .986.8 1.785 1.788 1.785zM24.95 42.178c-.988 0-1.79.799-1.79 1.785v4.54c0 .985.802 1.785 1.79 1.785.987 0 1.788-.8 1.788-1.786v-4.539c0-.986-.801-1.785-1.789-1.785zM33.88 8.398c.53 0 1.054-.234 1.407-.682l3.57-4.54A1.785 1.785 0 0038.555.67a1.792 1.792 0 00-2.512.302l-3.57 4.539a1.785 1.785 0 001.406 2.888zM14.612 7.716a1.788 1.788 0 002.512.302c.777-.61.912-1.733.302-2.508L13.855.97a1.793 1.793 0 00-2.512-.3 1.784 1.784 0 00-.302 2.507l3.571 4.539zM14.612 42.86l-3.571 4.54a1.784 1.784 0 001.406 2.888c.53 0 1.055-.235 1.408-.683l3.571-4.54a1.784 1.784 0 00-.302-2.507 1.79 1.79 0 00-2.512.302zM35.286 42.86a1.792 1.792 0 00-2.511-.302 1.785 1.785 0 00-.303 2.508l3.57 4.539a1.787 1.787 0 002.512.302c.777-.61.912-1.732.303-2.508l-3.57-4.539z" fill="#0085FF"/></svg>