<?xml version="1.0" encoding="utf-8"?><svg width="50" height="63" fill="none" xmlns="http://www.w3.org/2000/svg" viewBox="0 0 50 63"><path d="M48.786 32.97a6.34 6.34 0 00-5.209-2.684H29.28c1.173-2.822 1.87-4.82 1.87-9.06 0-.01-.005-.017-.005-.027 0-.01.006-.018.006-.027 0-2.997-2.106-5.515-3.941-7.373-1.624-1.648-4.077-1.778-5.83-.307-1.65 1.379-1.657 3.284-1.662 4.676-.001.339-.001.692-.027 1.053l-.105 1.449c-1.134 2.573-2.471 3.893-4.15 5.531-.236.231-.5.502-.752.752-.368-.723-1.098-1.232-1.965-1.232H2.225A2.225 2.225 0 000 27.946V60.25c0 1.23.997 2.226 2.226 2.226h10.493a2.225 2.225 0 002.225-2.226v-2.338H32.98c4.93 0 9.42-2.905 11.441-7.401l5.235-11.672a6.503 6.503 0 00-.87-5.869zM10.493 58.024H4.45V30.172h6.043v27.853zM45.519 37.21l-5.157 11.476a8.105 8.105 0 01-7.383 4.774H14.944V33.311l.795-.96c.971-1.174 1.904-2.085 2.806-2.965 2.146-2.07 5.694-5.71 5.585-9.845.034-.466.037-.921.038-1.36.001-.34.004-.815.036-1.092.775.793 2.496 2.644 2.496 4.136 0 3.71-.539 4.993-1.84 8.088l-.974 2.356a2.224 2.224 0 002.06 3.067h17.633c.637 0 1.217.301 1.593.825.386.54.484 1.213.347 1.65zM24.099 10.73a2.225 2.225 0 002.225-2.225V2.393a2.225 2.225 0 00-4.45 0v6.112c0 1.23.996 2.226 2.225 2.226zM14.286 10.095c.433.425.995.637 1.558.637a2.225 2.225 0 001.558-3.814l-4.126-4.05a2.224 2.224 0 10-3.116 3.177l4.126 4.05zM32.354 10.73c.563 0 1.125-.211 1.558-.636l4.127-4.05c.877-.86.89-2.27.03-3.146a2.223 2.223 0 00-3.147-.03l-4.126 4.049a2.225 2.225 0 001.558 3.814z" fill="#0085FF"/></svg>