<?xml version="1.0" encoding="utf-8"?><svg width="50" height="49" fill="none" xmlns="http://www.w3.org/2000/svg" viewBox="0 0 50 49"><path d="M36.471 10.201c-.204 0-.402.022-.604.03-.6-.96-1.268-1.874-2.07-2.677-2.914-2.893-6.77-4.486-10.858-4.486-2.591 0-5.077.652-7.312 1.87l.011-2.233c.008-1.617-1.943-2.436-3.091-1.298-.342.338-.535.799-.537 1.28l-.029 5.984a1.814 1.814 0 001.806 1.824l5.984.028c.481.002.944-.187 1.286-.525.987-.979.529-2.555-.644-2.986.824-.18 1.663-.306 2.526-.306 3.12 0 6.066 1.218 8.29 3.426.268.268.499.57.738.864a13.662 13.662 0 00-9.024 12.864c0 7.532 6.068 13.66 13.528 13.66C43.931 37.519 50 31.39 50 23.86c0-7.53-6.068-13.659-13.529-13.659zm-9.89 13.66c0-5.527 4.436-10.022 9.89-10.022 5.454 0 9.891 4.495 9.891 10.021 0 5.526-4.437 10.021-9.89 10.021-5.455 0-9.892-4.495-9.892-10.02z" fill="#0085FF"/><path d="M36.471 19.496c.662 0 1.2.57 1.2 1.272a1.818 1.818 0 103.638 0 4.905 4.905 0 00-3.095-4.567c-.176-.82-.87-1.446-1.743-1.446-.872 0-1.567.627-1.743 1.446a4.906 4.906 0 00-3.095 4.567c0 2.709 2.17 4.91 4.838 4.91.662 0 1.2.573 1.2 1.274 0 .702-.538 1.272-1.2 1.272-.662 0-1.2-.57-1.2-1.272a1.818 1.818 0 10-3.638 0 4.905 4.905 0 003.095 4.567c.176.82.87 1.446 1.743 1.446.872 0 1.567-.626 1.743-1.446a4.905 4.905 0 003.095-4.567c0-2.709-2.17-4.91-4.838-4.91-.662 0-1.2-.573-1.2-1.274 0-.702.538-1.272 1.2-1.272zM30.311 38.715l-5.857-1.23a1.814 1.814 0 00-1.364.256c-1.189.776-1.031 2.471.095 3.1-.082 0-.163.012-.245.012a11.641 11.641 0 01-8.29-3.424 11.765 11.765 0 01-1.8-2.324h4.112a1.818 1.818 0 001.819-1.818v-4.26c0-2.04-1.024-3.92-2.737-5.03l-1.111-.718a6.729 6.729 0 001.237-3.882 6.789 6.789 0 00-6.78-6.782 6.789 6.789 0 00-6.78 6.782c0 1.446.462 2.78 1.236 3.882l-1.11.718A5.973 5.973 0 000 29.027v4.26c0 1.005.814 1.818 1.819 1.818H8.8a15.163 15.163 0 003.278 4.896 15.257 15.257 0 0010.861 4.49c1.53 0 3.015-.24 4.447-.675l-.454 2.158c-.333 1.582 1.414 2.776 2.768 1.893.403-.263.684-.676.784-1.147l1.23-5.856a1.815 1.815 0 00-1.403-2.149zM3.638 29.027c0-.8.402-1.54 1.074-1.975l2.134-1.38a6.73 6.73 0 002.544.505c.9 0 1.756-.184 2.543-.505l2.134 1.38a2.344 2.344 0 011.076 1.975v2.441H3.638v-2.44zm2.609-9.63a3.147 3.147 0 013.143-3.144 3.147 3.147 0 013.143 3.144 3.147 3.147 0 01-3.143 3.142 3.147 3.147 0 01-3.143-3.142z" fill="#0085FF"/></svg>