<?xml version="1.0" encoding="utf-8"?><svg width="50" height="43" fill="none" xmlns="http://www.w3.org/2000/svg" viewBox="0 0 50 43"><path d="M49.862 21.96c-.085-.223-.252-.392-.385-.579L41 12.904V2.752c0-.987-.8-1.786-1.785-1.786h-9.483c-.986 0-1.785.799-1.785 1.786v5.357h-5.893V6.323c0-.987-.8-1.786-1.785-1.786h-9.483C9.8 4.537 9 5.337 9 6.323v6.581L.524 21.381c-.304.35-.538.786-.523 1.264v17.857c0 .987.8 1.786 1.785 1.786h46.428c.986 0 1.786-.799 1.786-1.786V22.645c0-.233-.047-.466-.138-.684zm-5.957-1.1H41v-2.906l2.905 2.906zM31.52 4.537h5.91V20.86h-3.5a2.08 2.08 0 00-1.485.795l-.926 1.387V4.537zm-3.572 7.143v14.537h-5.892V11.68h5.892zM12.572 8.11h5.91v14.933l-.924-1.387a2.085 2.085 0 00-1.486-.796h-3.5V8.11zM9 20.859H6.096L9 17.955v2.906zM46.43 38.718H3.572V24.43h11.545l3.041 4.562c.331.497.889.795 1.486.795h10.714c.597 0 1.154-.298 1.485-.795l3.042-4.562h11.544v14.286z" fill="#0085FF"/><path d="M17.305 11.681a1.777 1.777 0 11-3.555 0 1.777 1.777 0 013.555 0zM26.777 15.252a1.777 1.777 0 11-3.554 0 1.777 1.777 0 013.554 0zM36.26 8.109a1.777 1.777 0 11-3.555 0 1.777 1.777 0 013.555 0z" fill="#0085FF"/></svg>