<?xml version="1.0" encoding="utf-8"?><svg width="50" height="50" fill="none" xmlns="http://www.w3.org/2000/svg" viewBox="0 0 50 50"><path d="M30.738 10.069l-.718-.465a5.91 5.91 0 00.942-3.188A5.969 5.969 0 0025 .453a5.969 5.969 0 00-5.961 5.963c0 1.175.353 2.264.942 3.188l-.718.465a5.279 5.279 0 00-2.42 4.448v5.05c0 .988.799 1.786 1.785 1.786h12.744c.986 0 1.785-.798 1.785-1.785v-5.05a5.279 5.279 0 00-2.42-4.45zM22.61 6.416A2.394 2.394 0 0125 4.025a2.393 2.393 0 012.39 2.39A2.393 2.393 0 0125 8.806a2.393 2.393 0 01-2.39-2.39zm.285 5.557c.657.25 1.362.403 2.105.403.744 0 1.448-.153 2.105-.402l1.693 1.095c.494.319.789.86.789 1.449v3.264h-9.173v-3.264c0-.588.294-1.13.789-1.45l1.692-1.095zM13.895 38.307l-.719-.465c.59-.925.943-2.014.943-3.19a5.967 5.967 0 00-5.961-5.96 5.967 5.967 0 00-5.961 5.96 5.91 5.91 0 00.942 3.19l-.72.465A5.274 5.274 0 000 42.754v5.052c0 .987.8 1.786 1.786 1.786h12.742c.987 0 1.786-.8 1.786-1.786v-5.052a5.274 5.274 0 00-2.42-4.447h.001zm-8.127-3.655a2.393 2.393 0 012.39-2.389 2.393 2.393 0 012.39 2.39 2.393 2.393 0 01-2.39 2.39 2.393 2.393 0 01-2.39-2.39zm.284 5.56a5.9 5.9 0 002.106.402c.743 0 1.448-.153 2.104-.403l1.693 1.096c.493.319.788.86.788 1.447v3.266H3.572v-3.266c0-.587.294-1.128.787-1.447l1.693-1.096zM47.58 38.307l-.72-.465c.59-.925.943-2.015.943-3.19a5.967 5.967 0 00-5.961-5.96 5.967 5.967 0 00-5.961 5.96 5.91 5.91 0 00.943 3.19l-.719.465a5.275 5.275 0 00-2.42 4.447v5.052c0 .987.8 1.786 1.786 1.786h12.743c.986 0 1.786-.8 1.786-1.786v-5.052a5.274 5.274 0 00-2.42-4.447zm-8.128-3.655a2.393 2.393 0 012.39-2.389 2.393 2.393 0 012.39 2.39 2.393 2.393 0 01-2.39 2.39 2.393 2.393 0 01-2.39-2.39zm.285 5.56c.657.249 1.362.402 2.105.402a5.9 5.9 0 002.105-.403l1.694 1.096c.493.319.787.86.787 1.447v3.266h-9.171v-3.266c0-.587.294-1.128.788-1.447l1.692-1.096zM25 29.94c1.018 0 1.845.847 1.845 1.89a1.785 1.785 0 103.572 0 5.449 5.449 0 00-3.662-5.142c-.083-.91-.823-1.63-1.755-1.63-.931 0-1.672.72-1.755 1.63a5.449 5.449 0 00-3.662 5.143c0 3.011 2.43 5.461 5.417 5.461 1.018 0 1.845.85 1.845 1.892 0 1.043-.827 1.89-1.845 1.89s-1.845-.847-1.845-1.89a1.785 1.785 0 10-3.572 0 5.449 5.449 0 003.662 5.142c.083.91.823 1.631 1.755 1.631.931 0 1.672-.72 1.755-1.63a5.449 5.449 0 003.662-5.143c0-3.013-2.43-5.463-5.417-5.463-1.018 0-1.845-.848-1.845-1.89 0-1.043.827-1.891 1.845-1.891z" fill="#0085FF"/></svg>