<?xml version="1.0" encoding="utf-8"?><svg width="50" height="39" fill="none" xmlns="http://www.w3.org/2000/svg" viewBox="0 0 50 39"><path d="M48.214.607h-35.03a1.786 1.786 0 000 3.571h33.244v19.77a1.786 1.786 0 003.572 0V2.392c0-.986-.8-1.785-1.786-1.785z" fill="#0085FF"/><path d="M42.514 6.884H7.485a1.786 1.786 0 000 3.571H40.73v19.77a1.786 1.786 0 003.572 0V8.67c0-.987-.8-1.786-1.786-1.786h-.001z" fill="#0085FF"/><path d="M38.601 14.946c0-.986-.8-1.786-1.786-1.786H1.785C.8 13.16 0 13.96 0 14.946v21.556c0 .986.8 1.786 1.786 1.786h35.03c.985 0 1.785-.8 1.785-1.786V14.946zm-3.571 19.77H3.57V16.733H35.03v17.985z" fill="#0085FF"/><path d="M19.3 19.475a6.258 6.258 0 00-6.25 6.25 6.258 6.258 0 006.25 6.25 6.258 6.258 0 006.25-6.25 6.258 6.258 0 00-6.25-6.25zm0 8.928a2.681 2.681 0 01-2.678-2.678 2.681 2.681 0 012.678-2.679 2.681 2.681 0 012.679 2.679 2.682 2.682 0 01-2.679 2.678zM8.558 23.939H8.54c-.986 0-1.776.8-1.776 1.786s.808 1.785 1.794 1.785a1.786 1.786 0 000-3.571zM30.114 23.939h-.018c-.986 0-1.776.8-1.776 1.786s.808 1.785 1.794 1.785a1.786 1.786 0 000-3.571z" fill="#0085FF"/></svg>