<?xml version="1.0" encoding="utf-8"?><svg width="50" height="54" fill="none" xmlns="http://www.w3.org/2000/svg" viewBox="0 0 50 54"><path d="M49.587 39.163l-3.543-8.82c-.93-2.318-3.337-3.549-5.583-2.867l-.546.155 5.398-5.498a4.623 4.623 0 001.075-4.725c-.542-1.625-1.907-2.79-3.563-3.042l-10.364-1.574c-.21-.031-.395-.18-.5-.4l-4.635-9.814C26.576.988 25.039 0 23.317 0c-1.723 0-3.26.987-4.01 2.577l-4.636 9.815a.683.683 0 01-.5.4L3.808 14.366c-1.657.252-3.022 1.417-3.564 3.04a4.626 4.626 0 001.076 4.726l7.5 7.639c.179.183.263.465.218.735l-1.77 10.788c-.29 1.771.425 3.505 1.867 4.524a4.344 4.344 0 004.631.265l8.264-4.54c-.206.397-.382.81-.5 1.247a6.336 6.336 0 003.738 7.523l5.718 2.313a5.703 5.703 0 004.86-.271l11.163-6.041a5.71 5.71 0 002.578-7.151zm-4.383 3.82l-11.16 6.04a1.911 1.911 0 01-1.636.091l-5.719-2.313a2.543 2.543 0 01-.003-4.712l.72-.293.583 1.448c.013.043.03.086.046.128a1.901 1.901 0 002.466 1.054 1.895 1.895 0 001.055-2.465l-6.64-16.531a1.287 1.287 0 112.391-.96l3.215 8.003a1.885 1.885 0 002.275 1.116l8.734-2.48c.457-.137.83.226 1 .645l3.542 8.82a1.924 1.924 0 01-.868 2.408zm-33.882-.258a.807.807 0 01-.315-.817l1.77-10.789a4.653 4.653 0 00-1.254-4.002l-7.5-7.64c-.329-.336-.224-.753-.184-.872.053-.162.196-.441.538-.493l10.364-1.575a4.464 4.464 0 003.357-2.527l4.635-9.815c.167-.353.437-.406.583-.406h.001c.146 0 .416.053.583.407l4.636 9.812a4.458 4.458 0 003.356 2.53l10.364 1.575c.342.052.484.33.538.494.04.119.144.535-.185.871l-7.5 7.64c-.6.613-.981 1.386-1.17 2.21l-.537.152-2.58-6.422a5.093 5.093 0 00-2.909-2.854 5.106 5.106 0 00-4.07.205c-2.348 1.172-3.421 3.998-2.443 6.433l4.443 11.06-.42-.23a4.352 4.352 0 00-2.106-.545c-.722 0-1.445.181-2.103.543l-9.27 5.093a.548.548 0 01-.622-.038z" fill="#0085FF"/></svg>