<?xml version="1.0" encoding="utf-8"?><svg width="25" height="21" fill="none" xmlns="http://www.w3.org/2000/svg" viewBox="0 0 25 21"><path d="M2.408 9.16C9.793 6.056 19.35 2.269 20.67 1.745 24.13.372 25.192.635 24.662 3.674c-.38 2.183-1.477 9.412-2.351 13.911-.52 2.668-1.683 2.985-3.514 1.83-.88-.555-5.323-3.364-6.287-4.023-.88-.601-2.094-1.324-.572-2.748.542-.508 4.094-3.75 6.86-6.273.363-.331-.092-.876-.51-.61-3.73 2.365-8.901 5.646-9.56 6.074-.994.645-1.949.941-3.663.47-1.295-.355-2.56-.78-3.052-.941C.116 10.74.567 9.935 2.408 9.16z" fill="gray"/></svg>