<svg width="1011" height="4645" viewBox="0 0 1011 4645" fill="none" xmlns="http://www.w3.org/2000/svg"><path fill-rule="evenodd" clip-rule="evenodd" d="M608.398 4168.42c50.455 18.96 69.862 70.36 112.223 101.13 44.889 32.61 129.354 33.92 141.659 83.3 12.35 49.56-66.78 77.18-90.334 122.69-22.777 44 4.076 112.38-43.819 136.46-47.887 24.08-104.168-30.28-160.056-33.96-59.605-3.93-129.967 48.43-173.659 11.97-44.249-36.93 21.8-103.4 3.452-154.01-21.344-58.89-118.51-90.76-114.309-151.82 4.121-59.9 70.392-106.13 133.606-128.65 59.966-21.37 130.57-9.91 191.237 12.89zM492.472 3128.34c-47.315 1.91-80.594-33.06-125.396-43.48-47.478-11.05-116.28 16.77-143.122-18.98-26.939-35.89 27.657-85.3 31.163-130.18 3.391-43.39-41.721-89.56-11.192-125.42 30.524-35.85 94.655-11.1 141.144-27.23 49.581-17.2 88.622-83.63 136.447-69.06 48.435 14.76 17.706 91.13 49.859 125.82 37.406 40.36 126.939 32.94 144.413 83.79 17.142 49.88-20.686 109.95-64.143 149.79-41.224 37.8-102.283 52.66-159.173 54.95zM347.786 1053.85c40.305-6.91 62.115-42.44 98.078-59.309 38.111-17.878 101.231-6.772 117.462-41.808 16.289-35.163-38.72-67.06-49.763-104.331-10.679-36.041 19.109-83.156-13.134-107.946-32.238-24.787-81.946 7.667-124.115 2.419-44.972-5.597-89.911-54.675-127.679-33.756-38.25 21.186 1.457 80.158-19.452 115.248-24.324 40.823-101.28 50.68-106.881 96.774-5.495 45.216 37.272 89.139 81.151 114.959 41.625 24.5 95.871 26.06 144.333 17.75zM867.55 344.355c-21.893 35.12-63.52 41.967-93.084 69.209-31.329 28.869-45.068 92.258-84.103 94.063-39.177 1.812-48.021-61.93-78.718-86.534-29.684-23.791-85.222-13.904-96.116-53.597-10.893-39.687 38.529-73.846 49.743-115.364 11.958-44.278-16.835-105.156 17.212-132.541 34.482-27.735 74.547 32.026 115.423 25.859 47.553-7.176 86.225-75.51 131.556-63.125 44.467 12.147 69.262 69.02 76.674 120.01 7.031 48.371-12.264 99.791-38.587 142.02z" fill="#EFF7FF"/></svg>