<svg width="2618" height="6117" viewBox="0 0 2618 6117" fill="none" xmlns="http://www.w3.org/2000/svg"><path fill-rule="evenodd" clip-rule="evenodd" d="M370.762 3802.81c41.337-69.22.369-174.62 69.18-223.24 69.43-49.05 175.263-13.31 266.935-14.23 106.037-1.05 233.886-60.77 311.083 8.47 79.38 71.2-12.03 187.79 14.02 283.12 23.96 87.7 147.49 155.05 129.28 241.3-18.16 85.99-121.97 135.73-214.787 163.71-82.355 24.82-171.405-15.53-260.401-20.49-93.415-5.2-186.487 26.52-273.269-9.23-102.281-42.13-231.982-105.42-241.517-202.82-9.942-101.54 147.413-139.42 199.476-226.59zm255.845-1177.37c-37.688-76.2-144.929-99.05-152.32-188.25-7.458-90 73.003-164.72 116.216-247.46 49.984-95.71 61.682-244.14 156.253-274.24 97.237-30.94 150.272 116.97 241.988 147.5 84.366 28.08 199.586-44.63 262.526 20.46 62.75 64.89 54.29 186.13 33.02 285.2-18.88 87.89-95.13 144.95-141.94 221.97-49.13 80.85-67.41 182.26-138.74 239.88-84.07 67.92-198.878 148.47-284.388 101.96-89.151-48.49-45.15-211.04-92.615-307.02zm1504.343 537.2c-98.04 69.55-221.92 128-330.21 104.78-103.82-22.26-112.28-161.18-196.75-217.76-84.52-56.62-255.47-9.2-286.26-105.8-30.42-95.41 101.22-187.72 163.05-280.7 46.36-69.72 95.48-131.38 152.64-194.04 78.88-86.49 132.37-239.14 244.52-241.41 113.76-2.31 124.73 156.84 196.28 232.47 52.32 55.29 125.26 85.68 165.64 150.05 52.61 83.87 121.1 170.22 100.57 274.33-21.74 110.3-111.06 208.26-209.48 278.08zm89.4-1652.91c70.72 66.66 76.31 186.23 36.8 281.65-36.95 89.22-145.28 133.77-231.84 189.4-61.44 39.48-130.95 52.45-196.15 85.64-92.51 47.08-170.71 173.58-264.67 148.89-92.33-24.25-48.5-165.61-92.29-242.67-39.69-69.84-154.74-100.28-149.63-183.03 5.09-82.43 113.72-130.87 173.19-198.48 61.14-69.51 89.2-177.24 179.8-202.8 90.62-25.57 155.69 64.22 242.65 83.6 100.22 22.33 232.13-28.19 302.14 37.8zM1807.41 5557.6c50.16 88.38 17.47 210.11-53.08 293.89-65.97 78.35-189.81 90.17-295.19 119.73-74.78 20.97-149.23 12.89-225.82 26.4-108.65 19.17-228.29 122.41-315.398 69.09-85.597-52.38 4.054-180.97-15.527-271.62-17.746-82.16-124.342-147.65-92.645-229.16 31.578-81.2 156.962-96.84 238.79-146.65 84.11-51.2 147.03-150.82 246.84-148.98 99.84 1.85 136.86 111.74 218.6 157.6 94.19 52.85 243.79 42.2 293.43 129.7zm-370.49-824.25c-49.67-73.9-29.31-182.5 26.62-260.47 52.3-72.91 159.54-91.55 249.49-124.45 63.84-23.35 129.33-21.28 195.23-38.23 93.51-24.04 190.96-122.31 270.53-81.54 78.19 40.05 8.59 158.47 31.75 236.4 20.99 70.63 118.37 120.74 96.18 194.11-22.1 73.1-130.44 95.18-198.48 144.21-69.95 50.4-118.16 141.7-205.37 146.78-87.22 5.08-126.88-88.5-201.26-123.11-85.72-39.89-215.51-20.54-264.69-93.7zm712.1-4160.611c81.88 46.734 101.14 140.886 165.76 205.778 68.48 68.766 213.99 94.444 221.54 183.141 7.58 89.022-136.73 114.782-190.03 186.832-51.54 69.67-24.13 195.22-113.52 223.52-89.38 28.3-171.5-81.19-267-103.05-101.84-23.31-237.88 47.61-303.22-27.48-66.18-76.04 66.32-172.52 48.67-265.02-20.53-107.615-179.49-189.612-155.3-293.893 23.72-102.294 150.99-163.756 266.41-185.128 109.49-20.275 228.24 19.107 326.69 75.3zM586.657 813.414c106.292-11.626 186.679 61.983 289.222 78.519 108.666 17.523 259.351-55.81 325.361 20.586 66.24 76.675-49.09 196.431-50.03 298.071-.92 98.29 107.86 195.3 44.64 280.81-63.2 85.51-211.51 39.69-313.74 83.22-109.027 46.43-186.684 202.13-296.677 176.72-111.399-25.74-54.011-202.55-131.818-275.72-90.519-85.12-291.064-54.53-338.309-166.38-46.345-109.71 29.562-250.89 121.287-347.383 87.011-91.53 222.26-134.464 350.064-148.443zM1703.83 4143.4c-78.73-20.49-110.28-98.8-176.8-139.71-70.5-43.36-201.43-29.06-221.91-105.52-20.55-76.74 101.29-136.2 136.49-213.42 34.05-74.68-9.52-178.66 64.02-226.4 73.53-47.74 162.3 28.14 249.02 23.18 92.48-5.3 200.03-102.56 268.78-52.81 69.63 50.37-30.83 169.32-.96 246.58 34.76 89.88 186.25 121.93 181.48 220.24-4.68 96.43-106.06 183.11-203.39 231.34-92.32 45.75-202.06 41.14-296.73 16.52zM694.513 4866.6c-55.844-22.34-70.86-82.15-115.567-118.15-47.377-38.15-145.323-40.2-152.382-97.63-7.086-57.63 88.9-89.2 122.935-141.89 32.911-50.95 11.734-130.54 70.91-158.2 59.167-27.65 116.591 35.83 180.987 40.46 68.677 4.93 158.102-55.43 203.524-12.81 46 43.16-40.482 119.93-26.583 178.82 16.17 68.52 124.393 106.15 110.563 177.02-13.56 69.53-97.338 122.79-174.085 148.55-72.804 24.44-153.156 10.68-220.302-16.17z" fill="#EFF7FF"/><path d="M716.279 365.7c0 31.315-25.358 56.7-56.64 56.7-31.281 0-56.639-25.385-56.639-56.7s25.358-56.7 56.639-56.7c31.282 0 56.64 25.385 56.64 56.7zm278.702-190.8c0 31.315-25.359 56.7-56.64 56.7s-56.639-25.385-56.639-56.7 25.358-56.7 56.639-56.7c31.281 0 56.64 25.385 56.64 56.7zm163.629 401.4c0 31.314-25.36 56.7-56.64 56.7s-56.64-25.386-56.64-56.7c0-31.315 25.36-56.7 56.64-56.7s56.64 25.385 56.64 56.7zM1351 77.7c0 31.315-25.36 56.7-56.64 56.7s-56.64-25.385-56.64-56.7 25.36-56.7 56.64-56.7S1351 46.386 1351 77.7zM899.683 560.1c0 31.315-25.359 56.7-56.64 56.7s-56.639-25.385-56.639-56.7 25.358-56.7 56.639-56.7c31.281 0 56.64 25.385 56.64 56.7z" fill="#EFF7FF"/><path d="M666.832 380.1L847.538 561l97.996-350.1L1101.07 561l193.29-493.2M716.279 365.7c0 31.315-25.358 56.7-56.64 56.7-31.281 0-56.639-25.385-56.639-56.7s25.358-56.7 56.639-56.7c31.282 0 56.64 25.385 56.64 56.7zm278.702-190.8c0 31.315-25.359 56.7-56.64 56.7s-56.639-25.385-56.639-56.7 25.358-56.7 56.639-56.7c31.281 0 56.64 25.385 56.64 56.7zm163.629 401.4c0 31.314-25.36 56.7-56.64 56.7s-56.64-25.386-56.64-56.7c0-31.315 25.36-56.7 56.64-56.7s56.64 25.385 56.64 56.7zM1351 77.7c0 31.315-25.36 56.7-56.64 56.7s-56.64-25.385-56.64-56.7 25.36-56.7 56.64-56.7S1351 46.386 1351 77.7zM899.683 560.1c0 31.315-25.359 56.7-56.64 56.7s-56.639-25.385-56.639-56.7 25.358-56.7 56.639-56.7c31.281 0 56.64 25.385 56.64 56.7z" stroke="#EFF7FF" stroke-width="40.499"/></svg>